<?xml version="1.0" encoding="utf-8"?>
<!-- Generator: Adobe Illustrator 19.2.1, SVG Export Plug-In . SVG Version: 6.00 Build 0)  -->
<svg version="1.1" id="Слой_1" xmlns="http://www.w3.org/2000/svg" xmlns:xlink="http://www.w3.org/1999/xlink" x="0px" y="0px"
	 viewBox="0 0 500 500" style="enable-background:new 0 0 500 500;" xml:space="preserve">
<g>
	<path d="M446.7,391c-0.6,0-1.1-0.1-1.8-0.1c-4.7-0.1-9.4,0.1-14.1-0.1c-4.7-0.2-5.4-0.9-5.8-5.5c-0.1-1.3,0-2.6,0-3.9
		c0-17.2,0-34.4,0-51.7c0-66.5,0-133.1,0-199.6c0-8.9,0-8.9-8.2-11.6c-42-14.1-84-28.1-125.9-42.3c-4.7-1.6-8.1-1.2-12.1,1.8
		c-14.3,11-28.8,21.5-43.3,32.3c-9,6.7-18,13.4-27,20.1c-1.8,1.4-4.2,2.5-4.2,5.3c0,8.3-0.2,16.7,0.2,25c0.2,3.9,2.7,6.1,6.8,6.1
		c3.4,0,6.7-0.5,10.1-0.9c1.9-0.2,3.7-1,6.2,0c-10.3,4.6-20.1,8.8-29.7,13.3c-36.9,17.2-65.5,43.6-84,79.9
		c-20,39.2-31.6,81-34.6,125c-0.4,6.4-0.9,6.8-7.6,6.9c-5.7,0.1-11.5-0.1-17.2,0.1c-0.4,0-0.7,0-1.1,0.1v16.8h393.3V391z
		 M259.1,377.3c0,2.1,0.1,4.2,0,6.3c-0.2,6.5-0.9,7.3-7.1,7.3c-33.7,0.1-67.3,0-101,0c-6.8,0-7.7-0.8-7.3-7.8
		c2.4-39.9,7.3-79.4,21.7-117.1c7.2-19,18.2-35.8,30.2-51.9c10.2-13.6,20.6-27,33.9-37.7c6.9-5.6,14.3-10.5,21.7-15.4
		c1.7-1.1,3.3-2.6,6.2-2c2.7,2.9,1.7,6.2,1.7,9.2C259.1,237.9,259.1,307.6,259.1,377.3z M414.5,382.5c0,1.3,0,2.6-0.1,3.9
		c0,2.8-1.5,4.3-4.3,4.4c-1,0-2.1,0.1-3.1,0.1c-21.7,0-43.3,0-65,0c-1.5,0-3.1-0.3-4.9-0.4c-4.8-9.4-6.6-20.1-11.4-29.4
		c-6.2,0-11,3.8-16.2,3.3c-2.2-1.2-2.6-3-3.2-4.8c-7.7-26.7-11.8-53.8-11.5-81.7c0.6-59.2,0.2-118.4,0.2-177.7c0-3.1-0.7-6.2,1-9.5
		c2.6-1.2,4.5-0.1,6.5,0.5c17,5.7,34,11.6,51.1,17c4.6,1.5,6.7,3.9,7.6,8.5c4.4,21.4,9.2,42.8,13.9,64.1c0.4,2,0.6,4.1,2.3,5.9
		c4,1.2,7.5-1.3,11.2-2.1c5.2-1.1,6.1-1.1,7.4,3.8c5.9,21.9,13.8,43.2,17.5,65.6c0.8,4.7,0.9,9.3,0.9,14
		C414.5,306.3,414.5,344.4,414.5,382.5z"/>
	<path d="M327.9,128.9c0.6,6.7,0.4,13.1,0.1,20c-7-0.5-13-2.6-19.7-4.7c-0.7-6.5-0.4-13.1-0.2-19.6
		C312.8,123.4,316.9,124.3,327.9,128.9z"/>
	<path d="M326.7,188.5c-6.6-1.5-12.3-2.9-18.6-4.3c-0.2-6.9-0.8-13.5,0.4-20.3c6.2-0.4,11.3,2.4,16.9,3.3c1.3,0.2,2.3,1.5,2.3,2.8
		C327.7,175.9,328.7,181.8,326.7,188.5z"/>
	<path d="M336.3,131.8c7.3,0.4,12.6,2.9,18.3,4.4c1.1,6.7,0.5,12.8,0.4,19.3c-7,1.1-12.3-2.4-18.5-3.3
		C335.7,145.2,336.1,138.9,336.3,131.8z"/>
	<path d="M308.3,284.5c6.5-0.7,11.7,1.3,17.5,1.6c1.5,6.4,0.9,12.7,0.4,19.4c-6.1,0.9-11.5-1.1-17.5-1.3
		C307.1,297.6,307.9,291.3,308.3,284.5z"/>
	<path d="M336.5,190.4c0-7,0-13.1,0-19.7c6.5,0.4,12,1.9,17.7,4.3c0,5.9,0,11.5,0,17.7C347.7,194.8,342.3,191.1,336.5,190.4z"/>
	<path d="M308.5,204.3c6.4-0.5,12,1.3,17.7,3.1c0.7,6.2,0.4,12.1,0.2,18.5c-6.6,0.8-12.1-1.7-18-2.4
		C307.6,216.8,307.5,210.7,308.5,204.3z"/>
	<path d="M308.5,243.4c6.8,1.7,12.3,1.4,17.8,3.9c0,5.7,0,11.6,0,18.2c-6.2,0.2-11.9-0.3-17.9-2.3
		C307.5,256.9,307.6,250.6,308.5,243.4z"/>
	<path d="M353.1,212.6c0.8,6.4,0.5,12,0.3,17.9c-6,1.5-11-1-16.5-1.7c-1.6-6.2-0.5-12.3-0.7-18.7
		C342.4,209.2,347.3,211.8,353.1,212.6z"/>
	<path d="M336.6,346c-0.8-6.6-0.7-12.5-0.1-18.6c5.6-1.7,10.7,0.6,16.3,0.7c1.5,6.1,0.8,11.9,0.6,18
		C347.8,347.7,342.6,346.6,336.6,346z"/>
	<path d="M353.4,251.7c0.3,6,0.4,11.8-0.2,18.1c-5.8,0.5-10.7-1.3-16.1-1.8c-1.9-6.4-0.9-12.6-0.6-19.4
		C342.6,249.4,348,249.4,353.4,251.7z"/>
	<path d="M353.3,289.6c0.4,6.6,0.6,12.2-0.1,17.8c-4.7,1.1-7.9,1-16.4-0.9c-1.3-5.9-0.9-11.9-0.2-18.4
		C342.3,287.3,347.4,289,353.3,289.6z"/>
	<path d="M364.1,271.1c-0.1-6.2-0.9-11.8,0.4-16.9c2.1-1.6,3.6-0.9,5-0.4c3.6,1,8-0.3,10.9,3.1c1.5,1.8,0.8,12.1-0.8,17.1
		C374.7,273.2,369.5,273.7,364.1,271.1z"/>
	<path d="M380.1,237.3c-6-2-11.1-1.4-15.9-4c-0.5-5.9-0.6-11.8,0.3-18c5.8,0.9,10.9,1.2,15.9,3.7
		C381.5,224.8,381.5,230.5,380.1,237.3z"/>
	<path d="M364,291.7c5.5-0.9,9.8,0.5,14.2,0.8c1.7,0.1,2.8,1.5,2.9,3.2c0.1,4.9,0.6,9.8-0.6,14.8c-5.6,0.9-10.6,0.5-15.8-1
		C363.2,303.6,364.2,298,364,291.7z"/>
	<path d="M380.3,348.4c-5.8,0.3-10.6,0.2-15.8-0.7c-1-5.9-0.5-11.5-0.4-17.4c5.4-2,10.4-0.5,15.8-0.1
		C382.1,336.1,381.3,341.8,380.3,348.4z"/>
	<path d="M390.9,275.4c-0.4-6.2-0.5-11.6,0-17.4c5.1-0.9,9.4,1.3,14,1.7c2.4,4.9,1.2,10,1.2,14.8c0,2-1.6,3.2-3.9,2.9
		C398.6,276.8,395,276.2,390.9,275.4z"/>
	<path d="M391.1,295.4c0.7-0.5,0.9-0.7,1.1-0.7c14.7,0.1,17,3.5,12.7,18.7c-4.6,0.9-9.1,0-14-1.4
		C390.4,306.2,390.2,300.6,391.1,295.4z"/>
	<path d="M404.6,349.8c-4.8-0.3-9.2,0.4-13.5-1.5c-1.1-5.4-0.5-10.8-0.3-16c0.6-0.5,1-1.1,1.4-1.1
		C406.9,330.6,409.5,334.4,404.6,349.8z"/>
	<path d="M164.4,354.4c26.8,1.1,53.1,2.2,78.9,3.3c2.6,2.3,2.1,4.5,1.5,6.7c-1,1.3-2.2,1.5-3.6,1.5c-11.5-0.2-23-0.1-34.4-0.9
		c-11.5-0.7-22.9-0.7-34.4-1.2c-1.6-0.1-3.1,0-4.7-0.1c-4.1-0.4-4.8-1.2-4.5-5.4C163.4,357.3,163.9,356.3,164.4,354.4z"/>
	<path d="M244.6,330c1.2,2,0.6,4,0.3,5.8c-2,1.8-63.6-1-77.1-3.4c-1.7-2.4-1.3-4.7,0-7.1C175.4,324,238.5,327.9,244.6,330z"/>
	<path d="M244.6,301.2c1,1.9,0.8,3.9,0.2,6.1c-0.6,0.4-1.3,1.1-1.9,1.1c-23.1-1.4-46.2-2.8-69.4-4.2c-0.2,0-0.4-0.3-0.6-0.4
		c-1.3-6.8-0.1-8.5,5.7-8.1c20.5,1.4,41.1,2.8,61.6,4.3C241.7,299.9,243.3,299.9,244.6,301.2z"/>
	<path d="M180.2,274.9c0.1-6.9,1-8,6.4-7.6c18.1,1.3,36.2,2.6,54.4,4c1,0.1,2,0.3,3,0.4c2.1,2.1,1.4,4.3,0.9,6.5
		C242.5,280.5,188.5,277.7,180.2,274.9z"/>
	<path d="M244.4,250.3c-10.2,1.2-47.8-1.6-52.8-3.9c1.7-7,1.9-7.1,8.4-6.7c13,0.8,26,1.5,39,2.4
		C245.3,242.5,245.4,242.8,244.4,250.3z"/>
	<path d="M244.5,214.1c0.9,2.9,1.1,4.9,0.2,6.6c-2.1,2.1-28.3,0.7-35.4-1.8c1.3-6.1,1.8-6.9,6.2-6.9c3.4,0,6.8,0.2,10.1,0.4
		C231.8,212.9,238,213.5,244.5,214.1z"/>
</g>
</svg>
