<?xml version="1.0" standalone="no"?>
<!DOCTYPE svg PUBLIC "-//W3C//DTD SVG 20010904//EN"
 "http://www.w3.org/TR/2001/REC-SVG-20010904/DTD/svg10.dtd">
<svg version="1.0" xmlns="http://www.w3.org/2000/svg"
 width="494.000000pt" height="494.000000pt" viewBox="0 0 494.000000 494.000000"
 preserveAspectRatio="xMidYMid meet">
<metadata>
Created by potrace 1.14, written by Peter Selinger 2001-2017
</metadata>
<g transform="translate(0.000000,494.000000) scale(0.100000,-0.100000)"
fill="#000000" stroke="none">
<path d="M1697 4218 c-22 -30 -1113 -1637 -1130 -1665 -6 -10 19 -13 115 -13
l123 1 92 137 c50 75 307 454 570 842 263 388 482 711 486 718 6 9 -18 12
-112 12 l-120 0 -24 -32z"/>
<path d="M1649 3688 c-210 -310 -397 -583 -414 -608 -47 -67 -349 -512 -358
-527 -6 -10 13 -13 96 -13 l105 0 573 842 c316 463 578 847 582 855 6 10 -12
13 -97 13 l-104 0 -383 -562z"/>
<path d="M1994 3780 c-170 -259 -412 -627 -538 -818 -126 -191 -239 -364 -252
-384 l-24 -38 103 0 104 0 554 841 c305 463 558 848 562 855 7 11 -11 14 -96
14 l-104 0 -309 -470z"/>
<path d="M2543 4148 c-38 -57 -252 -371 -475 -698 -223 -327 -453 -666 -512
-752 l-107 -158 104 0 104 0 60 88 c33 48 282 413 553 812 271 399 506 744
522 768 l29 42 -104 0 -103 0 -71 -102z"/>
<path d="M2534 3723 c-197 -290 -411 -605 -476 -700 -64 -94 -164 -242 -223
-327 l-106 -156 104 0 104 0 35 53 c20 28 129 189 244 357 114 168 230 339
258 380 173 252 566 828 594 870 l33 50 -104 0 -103 0 -360 -527z"/>
<path d="M3250 4185 c-7 -8 -9 -15 -4 -15 5 0 1 -5 -9 -11 -12 -7 -23 -6 -37
4 -11 8 -17 17 -13 20 3 4 1 7 -5 7 -6 0 -14 -5 -17 -10 -4 -6 -11 -7 -17 -4
-6 4 -8 2 -4 -4 3 -6 1 -14 -7 -19 -7 -4 -26 -27 -43 -50 -17 -24 -33 -41 -35
-38 -3 2 -5 -5 -6 -16 -1 -11 3 -17 8 -13 13 7 8 -38 -4 -47 -5 -3 -2 -9 6
-12 11 -4 15 -1 12 12 -2 10 3 18 11 18 8 0 14 -4 14 -9 0 -4 -5 -8 -12 -8 -6
0 -8 -3 -5 -7 4 -3 2 -12 -5 -20 -6 -7 -8 -16 -4 -20 3 -3 6 -1 6 5 0 6 7 9
17 5 11 -4 14 -3 9 5 -5 8 -2 10 8 6 12 -5 13 -9 3 -19 -7 -7 -15 -11 -19 -8
-5 2 -8 -1 -8 -7 0 -6 -6 -8 -12 -4 -7 4 -9 3 -5 -1 13 -15 35 -14 41 1 3 8
12 11 21 8 14 -6 13 -8 -2 -20 -10 -7 -14 -14 -9 -14 5 0 3 -7 -4 -15 -9 -10
-9 -15 -1 -15 10 0 15 12 13 31 0 3 10 5 22 5 18 0 22 -5 19 -20 -4 -17 -3
-18 6 -6 8 12 11 12 11 1 0 -8 7 -11 18 -9 12 3 19 0 19 -8 0 -16 -27 -15 -40
1 -5 6 -7 4 -4 -5 2 -8 9 -16 15 -16 7 -1 14 -3 17 -4 13 -7 31 -5 38 5 5 6 6
2 3 -9 -5 -14 -2 -17 11 -12 15 6 15 4 -2 -14 -10 -11 -13 -20 -7 -20 6 0 14
5 17 10 13 21 25 8 21 -22 l-5 -33 14 30 c8 17 14 24 15 17 0 -7 5 -10 12 -6
6 4 9 3 6 -2 -3 -5 0 -15 8 -22 8 -7 14 -9 14 -5 0 4 6 1 13 -8 7 -9 19 -18
27 -21 10 -3 8 -6 -8 -10 -15 -4 -20 -3 -15 5 4 7 -1 6 -10 -2 -9 -7 -17 -19
-16 -25 0 -7 2 -6 6 2 2 6 9 9 14 6 6 -3 5 -11 -2 -20 -10 -12 -10 -15 1 -12
8 2 14 -4 15 -12 0 -18 27 -20 31 -2 1 7 0 8 -3 2 -7 -15 -20 -12 -20 4 0 7 7
13 16 11 10 -1 16 -12 16 -26 0 -13 4 -30 8 -36 6 -9 3 -11 -8 -7 -9 4 -14 13
-11 20 3 8 0 11 -10 7 -11 -4 -12 -8 -2 -20 9 -11 9 -17 -3 -25 -11 -8 -10 -9
4 -4 27 9 39 -2 27 -24 -7 -12 -6 -20 0 -23 6 -3 5 -4 -2 -3 -7 2 -12 10 -10
20 2 11 -4 16 -20 15 -18 -1 -19 -2 -5 -6 15 -4 16 -7 5 -21 -11 -13 -11 -14
1 -7 11 6 13 4 8 -8 -4 -12 -2 -14 10 -10 10 4 14 2 10 -4 -4 -6 -4 -13 0 -16
5 -2 3 -2 -4 -1 -6 2 -14 -3 -17 -11 -3 -10 0 -12 12 -8 14 5 14 3 -3 -17
l-20 -23 24 13 23 12 -18 -25 c-13 -17 -21 -21 -26 -13 -6 8 -8 8 -8 -1 0 -20
17 -24 33 -8 13 13 15 11 13 -9 0 -13 -6 -22 -12 -19 -7 2 -15 -1 -19 -7 -3
-6 -3 -10 2 -9 4 1 16 -1 26 -6 15 -6 16 -10 5 -16 -7 -5 -17 -9 -23 -9 -5 0
-3 5 5 10 8 5 10 10 4 10 -6 0 -18 -8 -25 -17 -7 -10 -10 -15 -5 -11 15 12 46
-11 39 -29 -5 -12 -3 -14 7 -8 9 5 11 4 6 -4 -4 -6 -11 -9 -16 -6 -4 3 -13 -2
-20 -10 -10 -12 -7 -17 14 -26 19 -9 23 -15 14 -21 -10 -6 -10 -10 2 -19 13
-9 12 -10 -2 -5 -10 3 -20 1 -23 -4 -4 -6 1 -10 10 -10 9 0 13 -4 10 -10 -3
-5 0 -10 7 -10 8 0 9 -3 3 -8 -15 -11 -17 -32 -2 -32 6 0 4 -5 -5 -11 -10 -5
-18 -15 -18 -22 0 -8 4 -6 11 3 9 12 10 12 5 -4 -4 -11 -1 -23 6 -28 10 -6 10
-8 -2 -8 -12 0 -12 -2 -2 -9 11 -7 11 -9 -1 -14 -11 -4 -15 0 -12 13 2 11 0
22 -5 25 -5 3 -7 -4 -5 -15 2 -11 -2 -20 -8 -20 -7 0 -7 -4 3 -9 8 -6 17 -8
21 -5 4 2 10 0 13 -5 4 -5 1 -13 -5 -17 -8 -5 -9 -3 -4 6 6 9 4 11 -5 5 -10
-6 -8 -12 9 -27 13 -10 18 -18 12 -18 -7 0 -10 -4 -7 -9 3 -5 -1 -15 -10 -22
-14 -11 -15 -9 -11 19 3 18 1 32 -5 32 -5 0 -8 -6 -5 -12 2 -7 1 -20 -4 -29
-6 -11 0 -20 22 -33 16 -9 29 -23 29 -29 0 -8 -3 -7 -9 2 -5 7 -14 10 -20 7
-6 -4 -11 -3 -11 2 0 5 -7 9 -16 9 -12 0 -10 -5 7 -18 13 -10 28 -19 32 -19 5
0 1 -7 -7 -16 -9 -8 -14 -19 -11 -24 3 -5 0 -11 -5 -13 -6 -3 -5 -4 2 -3 7 2
13 8 13 14 0 7 3 12 8 12 4 0 10 0 14 0 4 0 2 -5 -5 -12 -15 -15 -16 -32 -2
-23 6 3 10 1 10 -5 0 -6 -10 -8 -23 -6 -15 3 -24 -1 -24 -10 0 -7 4 -11 8 -8
4 2 6 -21 5 -51 -3 -55 5 -77 20 -54 4 8 3 9 -4 5 -15 -9 -15 -1 -2 25 8 14 7
19 -2 19 -9 0 -9 3 2 10 13 9 13 11 0 21 -13 9 -13 10 0 6 11 -3 15 -19 15
-68 0 -35 4 -70 9 -78 6 -9 5 -12 -1 -8 -12 8 -41 -25 -35 -41 2 -7 9 -9 15
-5 7 3 8 2 4 -3 -5 -5 -13 -10 -18 -10 -22 -3 -23 -5 -9 -15 13 -9 12 -10 -2
-5 -11 3 -18 0 -18 -7 0 -8 -3 -8 -9 2 -6 9 -11 10 -15 2 -4 -6 -13 -11 -19
-11 -7 0 -6 4 3 10 13 8 13 10 -2 10 -9 0 -20 -4 -23 -10 -12 -19 -26 -10 -21
13 3 12 3 16 0 9 -3 -7 -15 -17 -26 -23 -15 -8 -19 -8 -14 0 8 12 -7 15 -18 4
-4 -4 -92 -8 -196 -8 -103 0 -183 3 -177 7 8 5 7 8 -4 8 -9 0 -19 -3 -23 -7
-4 -4 -21 -8 -37 -9 -27 -1 -28 0 -14 16 13 14 13 17 0 17 -8 0 -12 -4 -10 -8
3 -4 -3 -10 -13 -15 -22 -9 -392 -11 -399 -1 -2 4 -12 7 -21 7 -15 0 -15 -2
-2 -10 12 -8 10 -10 -8 -10 -13 0 -20 4 -17 10 3 5 0 7 -7 5 -7 -3 -19 -15
-26 -26 -8 -12 -9 -19 -4 -15 5 3 9 -1 9 -9 0 -18 -9 -19 -27 -2 -12 10 -12 9
-1 -5 7 -10 10 -18 6 -18 -4 0 -2 -7 5 -15 6 -8 9 -19 5 -25 -4 -6 -2 -17 5
-25 6 -7 7 -16 2 -19 -10 -6 -10 -46 1 -63 4 -6 3 -14 -3 -18 -7 -4 -6 -13 1
-27 8 -15 8 -19 0 -14 -7 4 -11 -1 -11 -13 0 -12 -5 -21 -11 -21 -5 0 3 -11
18 -24 26 -23 29 -24 53 -9 l25 16 -24 -27 c-14 -14 -21 -29 -18 -33 4 -3 7
-1 7 5 0 7 5 12 11 12 5 0 7 -6 3 -12 -4 -7 -4 -10 1 -6 4 4 16 3 27 -3 23
-12 64 -21 54 -12 -3 3 -1 11 4 18 7 8 5 12 -5 12 -7 0 -14 -3 -13 -6 2 -21
-4 -22 -18 -5 -8 10 -12 13 -9 6 6 -11 3 -12 -14 -3 -25 14 -26 15 -3 32 15
12 16 12 4 -2 -11 -14 -9 -17 13 -17 15 0 22 5 18 12 -4 6 1 4 12 -4 10 -8 21
-15 24 -15 3 0 5 -9 4 -20 -1 -11 1 -14 4 -7 4 10 9 9 19 -5 13 -17 14 -17 7
2 -3 11 -3 17 2 13 4 -4 16 -3 26 2 12 7 20 6 25 -2 4 -6 3 -8 -4 -4 -6 3 -13
3 -15 -2 -3 -4 19 -7 48 -7 38 0 51 3 44 11 -5 6 -6 14 -2 17 3 4 1 7 -6 7 -8
0 -11 -7 -6 -17 5 -14 3 -15 -5 -6 -9 8 -9 17 -2 29 9 16 12 14 31 -17 11 -19
21 -30 21 -25 0 6 5 5 12 -2 7 -7 19 -12 28 -11 9 0 6 4 -8 9 -20 9 -21 12
-11 32 17 34 21 35 16 7 -5 -24 -3 -26 29 -24 19 1 34 -3 34 -9 0 -7 3 -8 8
-1 4 6 16 12 26 13 18 3 19 2 5 -15 -12 -16 -12 -17 1 -7 8 5 25 9 37 8 12 0
22 2 21 5 -2 19 3 31 11 26 6 -3 15 3 21 12 11 17 11 17 6 1 -3 -10 -1 -18 4
-18 6 0 10 4 10 9 0 5 7 12 16 15 13 5 14 4 6 -7 -7 -8 -8 -18 -4 -22 4 -5 1
-5 -7 0 -10 6 -12 4 -6 -5 6 -10 11 -9 22 5 7 11 13 23 13 28 0 4 5 5 11 1 8
-4 7 -9 -2 -15 -18 -11 -6 -21 15 -13 9 3 13 11 10 16 -4 6 3 5 15 -1 23 -13
29 -23 8 -15 -7 2 -21 -3 -32 -11 -19 -16 -19 -16 2 -6 29 14 36 14 27 -1 -6
-10 -4 -10 7 -2 8 6 23 10 34 7 54 -11 75 -11 65 2 -5 6 -7 15 -3 18 3 4 1 7
-6 7 -8 0 -11 -7 -6 -18 5 -13 3 -14 -5 -5 -9 8 -9 17 -2 29 9 16 13 14 32
-19 24 -40 33 -48 23 -19 -3 9 -3 14 2 10 4 -4 16 -3 26 2 12 7 20 6 25 -2 4
-6 3 -8 -4 -4 -6 3 -13 3 -16 -2 -2 -4 10 -8 29 -8 31 0 41 15 20 33 -4 4 -5
3 -2 -3 3 -6 0 -11 -8 -11 -8 0 -15 4 -15 9 0 8 17 12 35 8 6 -1 16 -3 23 -3
6 0 12 -3 12 -7 0 -3 6 -14 13 -23 11 -16 12 -15 14 9 1 19 -1 23 -8 13 -5 -8
-9 -9 -9 -4 0 6 4 16 9 23 7 11 9 11 14 -1 4 -10 16 -13 36 -11 17 2 31 -1 31
-7 0 -6 -4 -7 -10 -4 -5 3 -10 1 -10 -6 0 -8 -3 -9 -13 0 -14 11 -27 5 -27
-13 0 -6 5 -4 10 4 7 11 10 11 10 2 0 -17 31 -11 47 8 9 10 12 11 13 3 0 -7 5
-13 10 -13 7 0 7 7 0 21 -7 11 -9 23 -7 26 3 2 8 -5 12 -16 4 -13 11 -18 18
-14 7 4 6 -1 -2 -10 -9 -12 -10 -17 -2 -17 9 0 9 -5 0 -22 -9 -18 -9 -20 0
-12 7 6 13 18 14 25 3 15 9 19 30 19 9 0 8 -3 -2 -9 -7 -5 -10 -14 -7 -20 4
-6 12 -9 17 -6 5 4 9 1 9 -4 0 -15 -13 -14 -29 2 -9 8 -12 8 -7 0 3 -6 3 -13
-1 -16 -5 -2 -2 -2 5 -1 6 2 12 -1 12 -6 0 -5 8 -7 18 -4 13 4 14 3 4 -4 -8
-5 -14 -13 -14 -18 1 -5 -9 -15 -21 -22 -21 -13 -21 -13 -1 -7 13 3 26 -1 33
-9 13 -16 6 -40 -9 -31 -4 3 -10 -1 -13 -9 -3 -7 0 -13 6 -12 7 0 12 -3 12 -9
0 -5 -5 -9 -12 -7 -7 2 -13 -2 -13 -8 0 -5 7 -10 16 -10 8 0 13 -4 9 -9 -3 -5
-1 -12 5 -16 17 -11 2 -22 -25 -20 -14 2 -27 -1 -30 -5 -3 -5 6 -7 20 -4 14 2
25 0 25 -6 0 -6 5 -8 12 -4 7 5 8 3 4 -5 -5 -7 -14 -10 -21 -7 -7 2 -16 -1
-18 -8 -4 -9 3 -12 21 -9 27 4 27 4 -3 -12 -16 -8 -22 -13 -12 -10 16 4 21 -5
18 -34 -2 -8 2 -10 11 -5 11 6 11 5 0 -8 -9 -11 -10 -18 -2 -23 17 -11 2 -23
-25 -20 -14 2 -27 -1 -30 -5 -3 -5 6 -7 20 -4 14 2 25 0 25 -6 0 -6 5 -8 12
-4 7 5 8 3 4 -5 -5 -7 -14 -10 -21 -7 -7 2 -16 -1 -18 -8 -4 -9 3 -12 21 -9
27 4 27 4 -3 -12 -16 -8 -22 -13 -13 -11 20 6 29 -13 17 -36 -6 -11 -5 -19 3
-24 6 -4 8 -3 4 4 -3 6 -2 13 3 16 7 5 8 -8 2 -32 -1 -1 -10 2 -21 8 -16 9
-18 8 -14 -5 4 -8 13 -15 21 -15 8 0 11 -5 8 -10 -4 -6 -11 -7 -17 -4 -7 4 -8
2 -4 -4 4 -6 12 -10 19 -8 7 1 8 1 4 -2 -4 -2 -2 -11 5 -20 7 -9 -1 -6 -19 7
-18 12 -33 18 -33 12 0 -6 5 -11 10 -11 6 0 9 -3 9 -7 -3 -21 2 -33 15 -33 8
0 18 -4 21 -10 4 -7 -2 -7 -18 -1 -14 6 -28 7 -31 3 -12 -12 -48 -13 -40 0 4
7 3 8 -5 4 -6 -4 -19 -2 -27 5 -12 10 -15 10 -12 -1 2 -7 -3 -15 -11 -18 -8
-2 -11 -1 -8 4 3 5 -8 10 -25 11 -20 0 -26 -2 -17 -7 7 -5 18 -6 24 -3 5 4 6
2 2 -3 -5 -5 -22 -9 -38 -10 -22 -1 -29 3 -29 16 0 10 6 20 13 23 6 2 -8 4
-33 3 -38 0 -45 3 -43 18 1 13 -2 15 -10 7 -13 -13 9 -42 28 -35 18 7 37 -4
29 -17 -4 -6 -11 -6 -20 2 -11 9 -14 8 -14 -2 0 -9 -3 -10 -8 -3 -4 6 -23 11
-42 10 -32 -1 -35 1 -32 24 1 18 -1 21 -7 11 -5 -8 -14 -10 -21 -6 -10 6 -9
11 5 21 16 12 16 13 -3 11 -11 0 -19 -4 -16 -8 2 -4 0 -10 -6 -14 -6 -4 -8
-11 -4 -16 3 -5 10 -7 15 -4 5 4 9 2 9 -4 0 -5 -9 -9 -19 -8 -11 0 -17 5 -14
11 4 6 -1 6 -13 2 -15 -6 -17 -5 -6 5 21 22 13 31 -10 9 -12 -11 -27 -20 -32
-20 -6 0 -4 5 4 10 8 5 12 10 8 11 -15 3 -28 6 -30 9 -13 10 -40 5 -48 -8 -5
-10 -10 -12 -10 -6 0 5 -19 9 -44 9 -41 -1 -44 0 -35 18 6 10 8 21 5 25 -3 3
-6 0 -6 -6 0 -6 -10 -16 -22 -23 -18 -10 -20 -9 -15 5 4 11 3 15 -4 11 -6 -4
-19 1 -29 10 -18 16 -18 15 -16 -10 l3 -26 -21 20 c-12 12 -26 21 -31 21 -5 0
-1 -6 10 -13 12 -10 14 -16 7 -21 -7 -4 -12 -2 -12 3 0 6 -5 11 -11 11 -5 0
-7 -6 -3 -12 6 -10 5 -10 -8 -1 -8 7 -19 9 -23 5 -5 -4 -5 -1 -1 6 4 7 12 10
17 7 5 -4 9 -1 9 4 0 15 -16 14 -32 -2 -13 -12 -100 -19 -93 -7 2 3 0 12 -6
20 -7 12 -9 10 -9 -7 0 -21 -13 -25 -36 -10 -6 3 -14 3 -18 -1 -4 -4 -89 -8
-189 -8 -100 -1 -192 -4 -205 -7 -13 -4 -20 -2 -17 4 4 5 11 6 17 3 7 -4 8 -2
4 4 -4 6 -14 8 -23 5 -11 -4 -14 -3 -9 6 6 9 3 9 -13 -1 -12 -7 -21 -16 -21
-20 0 -3 -8 -5 -17 -3 -10 1 -22 0 -28 -3 -16 -10 -55 -10 -49 0 3 4 0 8 -5 8
-6 0 -11 -5 -11 -12 0 -9 -3 -9 -11 -1 -12 12 -42 6 -34 -6 2 -4 -2 -8 -10 -8
-8 0 -12 4 -10 8 6 8 -25 22 -33 14 -3 -3 0 -5 6 -5 7 0 12 -5 12 -10 0 -6 -3
-9 -7 -9 -5 1 -10 0 -13 -1 -6 -2 -63 -9 -110 -12 -30 -3 -35 0 -34 19 0 12
-4 19 -9 16 -5 -3 -6 -16 -3 -28 5 -18 2 -23 -12 -20 -9 1 -21 0 -27 -4 -17
-10 -35 -10 -29 0 3 5 11 6 17 3 7 -4 9 -3 4 1 -13 15 -46 13 -40 -2 6 -15
-23 -18 -32 -3 -3 6 -12 10 -18 9 -9 0 -9 -2 1 -6 6 -2 12 -9 12 -14 0 -6 -8
-6 -19 1 -14 7 -22 7 -27 -2 -4 -6 -3 -8 4 -4 6 3 13 3 16 -2 2 -4 -5 -9 -17
-9 -31 -2 -55 -8 -63 -15 -3 -4 -12 -4 -20 -1 -8 3 -21 0 -29 -7 -8 -6 -19 -9
-24 -5 -6 3 -20 1 -32 -6 -17 -9 -20 -8 -14 3 5 7 4 10 0 5 -5 -4 -18 1 -29
10 -21 18 -21 18 -4 -3 24 -28 23 -34 -8 -28 -19 3 -24 1 -18 -8 4 -7 4 -10
-1 -6 -4 4 -13 4 -19 -1 -7 -6 -25 -13 -41 -16 -39 -8 -59 -13 -62 -15 -2 -2
-6 -3 -10 -4 -5 -1 -14 -5 -21 -9 -6 -5 -12 -6 -12 -2 0 3 -15 -2 -33 -10 -28
-14 -30 -14 -13 0 11 8 15 15 9 15 -5 0 -23 -11 -38 -24 -16 -14 -31 -23 -35
-21 -3 2 -12 0 -20 -5 -8 -5 -22 -4 -34 2 -20 11 -20 10 -6 -7 9 -11 10 -16 3
-11 -8 4 -13 2 -13 -4 0 -6 -4 -9 -10 -5 -5 3 -6 13 -3 22 4 11 -1 9 -16 -6
-12 -12 -29 -20 -36 -17 -8 3 -17 0 -21 -6 -4 -7 -3 -8 4 -4 7 4 12 3 12 -2 0
-17 -13 -21 -34 -10 -20 11 -20 10 -6 -7 8 -10 10 -16 3 -12 -6 4 -15 2 -18
-4 -4 -5 -13 -8 -21 -5 -8 3 -14 1 -14 -5 0 -6 -4 -8 -9 -5 -4 3 -17 -4 -27
-15 -13 -14 -25 -18 -42 -14 -13 3 -21 2 -18 -3 4 -7 -79 -55 -94 -54 -3 0
-12 -6 -20 -13 -9 -8 -21 -11 -29 -6 -9 6 -10 11 -2 15 6 4 11 12 11 18 0 5
-8 0 -19 -13 -10 -13 -16 -30 -13 -39 5 -13 3 -13 -11 -1 -10 8 -20 11 -24 7
-3 -3 -1 -6 6 -6 19 0 7 -23 -14 -26 -10 -1 -21 -8 -25 -15 -4 -6 -12 -9 -18
-5 -6 3 -14 0 -19 -8 -7 -13 -76 -56 -90 -56 -3 0 1 8 8 17 13 16 12 17 -3 4
-10 -7 -18 -19 -18 -25 0 -17 -80 -66 -110 -66 -20 0 -22 -2 -10 -10 21 -14
-5 -13 -33 1 -21 10 -21 9 -3 -5 24 -19 12 -36 -44 -61 -23 -11 -37 -22 -33
-29 4 -6 -1 -5 -10 3 -10 8 -20 11 -24 7 -3 -3 -1 -6 5 -6 7 0 12 -5 12 -11 0
-5 -4 -8 -8 -5 -4 2 -9 -11 -10 -31 -2 -30 0 -35 15 -29 16 5 16 4 3 -6 -18
-16 -26 -58 -10 -58 6 0 8 5 5 10 -3 6 -1 10 5 10 7 0 10 -7 6 -15 -7 -19 3
-45 16 -45 7 0 6 5 -1 13 -8 11 -5 19 14 37 13 13 22 28 18 34 -3 6 0 5 8 -2
12 -11 12 -14 -1 -22 -13 -9 -13 -10 0 -10 13 0 13 -2 0 -9 -8 -6 -18 -7 -22
-5 -4 3 -8 1 -8 -5 0 -16 18 -22 23 -9 4 10 8 9 16 -2 8 -12 10 -11 10 5 1 43
5 53 18 48 8 -3 12 0 10 8 -2 8 -2 11 0 6 3 -4 10 -4 15 -1 6 4 8 2 5 -3 -10
-16 31 -23 43 -8 9 10 7 16 -8 24 -11 6 -23 7 -27 3 -5 -4 -5 -1 -1 5 6 10 14
9 37 -3 29 -14 30 -17 15 -33 -9 -10 -16 -22 -16 -27 0 -4 8 3 17 16 10 14 16
30 14 35 -1 6 -4 21 -6 35 -3 23 -2 23 12 5 11 -16 15 -17 22 -6 6 9 14 11 26
4 12 -7 14 -13 6 -17 -6 -4 -11 -1 -11 6 -1 9 -5 7 -14 -4 -7 -10 -17 -14 -21
-10 -5 4 -5 1 -1 -6 6 -9 11 -10 20 -3 7 6 16 8 20 4 4 -4 11 -1 16 7 6 10 3
21 -8 35 -16 19 -16 19 0 6 15 -11 22 -11 42 3 18 11 27 13 32 4 4 -6 3 -8 -3
-5 -6 4 -14 0 -17 -9 -3 -8 -9 -13 -14 -10 -4 2 -9 -5 -9 -17 -2 -20 -1 -20 8
-4 6 9 15 14 21 11 7 -4 8 -2 4 4 -4 7 -1 12 8 12 19 0 20 5 6 30 -7 13 -7 21
2 26 7 4 8 3 4 -4 -8 -14 21 -12 44 3 8 5 25 8 38 6 28 -3 28 7 0 19 -17 6
-18 9 -6 9 9 1 20 -3 23 -9 3 -5 11 -10 17 -10 6 0 5 7 -3 18 -13 15 -12 16 3
4 9 -8 22 -11 28 -7 6 4 16 2 23 -4 9 -7 13 -5 13 9 0 16 -6 19 -30 14 -17 -3
-27 -2 -23 2 11 12 87 12 80 1 -4 -6 -1 -7 7 -2 10 6 12 3 7 -11 -6 -15 -4
-15 11 4 13 16 20 20 29 11 8 -8 13 -7 18 2 5 7 4 10 -3 5 -5 -3 -12 0 -15 6
-3 10 -7 10 -19 0 -13 -10 -17 -10 -21 2 -4 11 -1 13 10 9 12 -5 14 -3 8 7 -6
9 -4 11 4 6 7 -5 18 -1 25 9 11 16 13 16 13 1 0 -9 -5 -16 -11 -17 -6 0 -2 -4
9 -8 12 -5 23 -4 27 2 4 7 13 6 25 -4 16 -12 17 -12 6 2 -7 9 -9 19 -5 24 4 4
-3 2 -15 -4 -15 -8 -23 -8 -23 -1 0 5 7 10 15 10 8 0 15 6 15 13 1 6 7 1 15
-13 l15 -25 -4 27 c-3 15 0 31 6 34 6 4 8 2 5 -3 -4 -6 4 -18 18 -27 14 -9 26
-14 26 -11 1 3 2 10 3 17 0 6 7 13 14 16 8 2 10 -3 6 -15 -5 -15 -4 -15 5 -3
10 14 16 7 12 -13 -1 -5 3 -6 9 -2 6 4 3 16 -8 33 -9 14 -12 23 -6 19 7 -4 17
0 24 8 6 7 19 11 27 8 10 -4 14 -2 10 4 -4 6 1 10 11 9 9 0 16 5 14 12 -1 9 5
8 23 -4 14 -9 22 -21 18 -28 -4 -7 -1 -6 9 1 8 7 19 9 23 5 5 -4 5 -1 1 6 -4
7 -12 9 -18 6 -6 -4 -8 -2 -4 4 3 5 0 13 -6 15 -10 4 -10 6 0 6 6 1 20 -7 31
-18 18 -18 18 -17 31 2 12 20 13 21 28 1 11 -15 13 -15 9 -2 -7 20 18 45 28
28 3 -5 1 -10 -6 -10 -7 0 -9 -3 -6 -6 4 -4 13 -1 22 6 8 7 15 9 15 4 0 -4 5
-3 11 3 8 8 8 17 -1 34 -10 22 -10 22 3 7 14 -18 33 -25 23 -9 -3 4 6 6 19 3
14 -2 22 -8 20 -13 -3 -4 -12 -6 -20 -3 -18 7 -40 -32 -23 -42 6 -4 8 -3 5 2
-3 6 -1 16 4 24 7 12 11 13 18 2 6 -11 10 -10 16 5 5 10 7 22 6 27 -2 11 32
36 41 30 5 -3 8 1 8 8 0 7 10 0 21 -17 12 -16 19 -22 15 -13 -3 10 -1 20 5 23
5 4 7 12 3 18 -3 7 3 2 14 -10 23 -26 36 -19 21 11 -10 20 -10 20 5 2 9 -11
19 -16 23 -13 3 4 3 7 -2 7 -4 0 -2 7 5 15 10 13 15 12 32 -8 l19 -22 -6 25
c-5 22 -4 23 5 7 7 -10 9 -26 6 -35 -3 -10 1 -7 11 6 14 20 18 21 32 8 15 -14
17 -13 18 5 1 13 -3 19 -11 16 -7 -3 -13 0 -13 6 0 7 10 12 23 12 12 0 21 -2
20 -5 -2 -3 5 -13 15 -22 14 -13 18 -14 23 -3 7 18 66 49 67 35 1 -5 2 -14 3
-19 0 -5 5 -13 10 -18 5 -4 6 -3 3 3 -8 14 20 27 35 17 6 -3 8 -1 4 5 -3 6 -2
13 4 17 5 3 10 0 10 -7 1 -7 8 1 17 17 10 17 16 33 15 38 -1 4 7 2 18 -5 13
-8 16 -15 8 -19 -7 -4 -16 -5 -20 -3 -4 3 -8 -2 -8 -10 0 -10 6 -13 17 -9 9 4
14 2 10 -3 -3 -6 4 -11 15 -11 20 -2 20 -1 2 13 -18 14 -18 14 6 12 21 -3 25
1 23 22 -1 14 0 18 3 8 3 -10 9 -18 14 -18 5 0 11 8 13 18 4 16 5 16 6 0 1
-20 16 -24 26 -8 3 6 1 10 -4 10 -6 0 -11 5 -11 11 0 8 5 8 15 -1 12 -10 15
-10 15 0 0 8 3 10 7 7 3 -4 -2 -15 -11 -26 -13 -14 -14 -21 -5 -27 8 -4 10 -3
5 4 -4 7 -2 13 3 13 6 1 15 2 20 3 5 0 13 5 18 10 5 5 3 6 -4 2 -9 -5 -11 -2
-6 10 6 15 7 15 15 0 6 -11 5 -22 -2 -32 -8 -8 -8 -14 -2 -14 5 0 13 7 16 15
4 13 10 14 26 5 16 -9 18 -8 14 5 -3 8 -10 13 -14 10 -4 -3 -14 3 -21 13 -13
16 -13 16 5 2 18 -14 19 -13 13 5 -7 19 -6 19 7 3 7 -10 19 -18 25 -18 7 0 9
-4 6 -10 -3 -5 -1 -10 4 -10 6 0 11 9 11 21 0 21 0 21 21 -2 11 -13 17 -17 13
-9 -21 38 -12 52 9 16 19 -30 25 -35 30 -22 4 9 5 22 3 29 -1 6 -1 9 1 5 8
-14 25 -9 20 5 -3 8 1 14 8 14 17 0 15 -18 -5 -34 -13 -11 -12 -12 5 -6 17 6
18 5 7 -9 -10 -13 -10 -18 -1 -24 7 -4 9 -3 5 4 -3 6 -2 13 4 17 6 4 8 11 5
16 -4 5 -1 9 5 9 6 0 8 4 5 10 -3 6 1 7 10 4 12 -5 13 -10 6 -17 -6 -6 -11
-15 -11 -20 0 -5 8 -1 17 9 10 10 18 21 18 25 0 4 3 10 7 14 4 4 5 -8 3 -26
-3 -22 -1 -29 4 -20 5 8 16 11 24 8 16 -6 18 16 2 30 -4 4 -5 2 -1 -5 4 -6 2
-12 -4 -12 -18 0 -6 23 13 26 9 1 15 -2 11 -7 -8 -13 10 -11 25 4 11 10 12 9
6 -2 -6 -11 -4 -13 8 -8 16 6 16 4 1 -21 -11 -19 -12 -22 -1 -9 18 22 31 22
23 1 -6 -15 -4 -15 10 -3 10 8 12 15 5 17 -6 2 -11 11 -11 20 0 12 7 7 21 -13
12 -16 19 -23 16 -15 -2 8 1 21 9 27 9 9 14 9 16 1 3 -8 11 -8 28 1 24 12 24
11 5 -4 -11 -8 -26 -13 -34 -10 -9 3 -12 3 -9 -1 4 -4 3 -16 -3 -28 -10 -20
-9 -20 5 -2 9 11 22 16 31 12 11 -4 14 -2 9 6 -5 8 -2 9 10 5 10 -4 20 -7 22
-7 3 0 2 -6 -2 -12 -4 -7 -4 -10 1 -6 4 4 14 3 22 -4 11 -9 13 -8 11 2 -2 7 3
15 11 18 10 3 11 0 5 -9 -6 -11 -5 -12 7 -2 12 10 18 10 29 0 12 -10 12 -9 2
5 -8 10 -9 19 -3 22 5 4 13 -3 16 -15 4 -12 10 -18 14 -13 7 11 29 17 54 16 9
0 15 3 12 8 -8 13 45 4 58 -9 9 -10 8 -16 -7 -27 -11 -8 -15 -14 -9 -14 17 0
44 30 38 41 -4 5 1 6 9 3 9 -3 16 -10 16 -16 0 -5 -5 -6 -12 -2 -7 4 -8 3 -4
-5 4 -6 11 -9 16 -6 11 7 22 -24 13 -38 -3 -7 -2 -8 3 -4 5 5 9 16 10 25 3 57
4 58 15 40 5 -10 15 -18 21 -18 6 0 5 7 -3 18 -13 15 -12 16 4 3 9 -7 17 -10
17 -6 0 4 7 2 16 -6 13 -10 17 -10 25 2 5 8 9 9 9 3 0 -5 -5 -15 -12 -22 -9
-9 -9 -12 -1 -12 7 0 19 10 27 22 9 12 16 18 16 12 0 -5 -5 -15 -12 -22 -9 -9
-7 -12 10 -12 12 0 21 3 21 7 -1 5 -1 15 0 23 1 12 3 12 12 -2 5 -10 16 -15
24 -12 8 4 15 1 15 -4 0 -6 -9 -9 -20 -7 -11 2 -18 0 -15 -6 4 -5 -2 -9 -12
-10 -11 0 -13 -3 -5 -6 7 -3 20 1 29 9 15 11 16 11 10 -4 -10 -27 1 -21 17 10
8 15 15 21 16 13 0 -11 3 -11 17 0 12 10 15 11 9 1 -6 -9 -1 -11 18 -8 15 3
24 1 21 -5 -4 -5 -10 -7 -14 -5 -4 3 -12 -4 -19 -15 -7 -11 -8 -19 -2 -19 5 0
10 5 10 11 0 13 42 8 52 -6 5 -7 8 -6 8 1 0 5 19 11 43 12 29 2 38 -1 27 -7
-8 -5 -18 -7 -22 -5 -4 3 -5 -2 -2 -10 5 -14 8 -14 21 -1 8 8 19 15 24 15 6 0
8 4 4 9 -3 5 -1 12 4 15 10 7 9 -20 -2 -30 -16 -16 -5 -22 12 -7 11 9 17 23
14 32 -2 9 2 5 10 -9 16 -26 25 -29 36 -11 4 6 12 2 19 -9 7 -11 8 -20 4 -20
-5 0 -9 -7 -9 -16 0 -10 7 -7 21 11 15 17 28 24 44 21 13 -3 22 0 22 7 0 7 5
4 11 -6 11 -19 33 -13 23 6 -3 7 1 4 9 -5 16 -20 32 -25 21 -6 -4 7 -3 8 5 4
6 -4 9 -12 5 -17 -8 -13 28 -7 39 6 4 6 5 -2 1 -16 -3 -15 -1 -30 5 -33 7 -5
8 -1 4 11 -6 17 -5 17 15 0 20 -18 20 -18 17 0 -1 10 -8 17 -14 15 -6 -1 -11
3 -11 9 0 18 24 4 35 -19 5 -12 16 -24 23 -27 7 -2 10 0 7 5 -3 6 -2 10 4 10
5 0 11 -6 14 -12 3 -10 7 -10 19 -1 11 10 17 10 27 0 10 -9 16 -7 32 12 21 26
25 21 8 -12 -7 -12 -8 -19 -4 -15 4 4 14 0 22 -10 10 -13 13 -14 11 -2 -2 8
-7 19 -13 23 -6 5 -3 7 7 4 9 -3 18 -1 21 6 2 6 6 3 10 -7 4 -9 3 -15 -1 -12
-4 2 -8 -3 -8 -13 0 -9 8 -17 18 -17 10 0 14 5 9 11 -11 15 -8 38 7 41 7 1 8
0 3 -2 -13 -7 9 -55 23 -52 6 1 20 -3 31 -9 18 -10 21 -9 22 10 2 17 0 19 -7
7 -7 -12 -12 -12 -22 -2 -9 9 -9 12 5 12 11 0 15 5 10 18 -3 11 1 9 12 -6 16
-22 18 -22 36 -6 11 10 19 12 19 6 0 -7 -5 -12 -11 -12 -5 0 -7 -5 -4 -10 4
-6 1 -9 -6 -8 -6 2 -14 -4 -16 -12 -3 -9 -1 -11 4 -5 19 23 39 13 34 -17 -3
-18 17 -6 27 17 13 28 24 31 44 13 7 -7 22 -20 32 -28 18 -14 18 -13 12 10 -5
17 -4 21 2 11 6 -8 17 -11 28 -7 16 6 16 5 -2 -15 -19 -22 -19 -22 1 -11 19
10 27 12 43 12 4 0 0 5 -8 10 -8 5 -10 10 -5 10 6 -1 19 -7 29 -15 10 -8 22
-12 27 -10 9 6 6 -22 -4 -31 -4 -4 -7 0 -7 9 0 9 -4 17 -10 17 -12 0 -9 -22 5
-32 5 -4 16 -1 24 5 12 10 14 9 7 -8 -7 -20 -7 -20 12 0 11 11 17 25 14 30 -3
6 4 2 15 -8 11 -9 23 -14 26 -10 4 3 7 1 7 -5 0 -7 4 -12 10 -12 5 0 8 6 6 12
-1 7 -1 10 1 5 3 -4 8 -5 13 -2 10 6 7 -35 -4 -56 -4 -8 0 -5 8 5 12 15 16 16
16 5 0 -8 3 -10 8 -4 11 15 40 17 45 3 2 -7 2 -3 0 10 -2 12 0 22 5 22 5 0 9
-7 10 -15 1 -8 3 -22 4 -30 1 -8 5 -12 9 -9 4 2 9 -1 11 -8 3 -8 7 -6 11 5 3
9 1 19 -5 23 -7 5 -8 2 -3 -6 5 -9 4 -11 -4 -6 -25 16 7 28 39 16 3 -1 8 -2
11 -2 6 1 8 -9 11 -53 2 -21 13 -27 13 -7 0 4 4 13 9 21 6 9 5 12 -1 8 -5 -3
-10 0 -10 7 0 7 6 13 13 13 7 0 11 -4 8 -9 -3 -4 2 -8 11 -8 9 0 13 4 10 10
-3 6 1 7 10 3 12 -4 13 -8 5 -13 -8 -5 -6 -9 6 -14 10 -4 21 -1 27 6 6 9 7 8
3 -5 -3 -10 -6 -21 -6 -23 0 -2 -11 3 -25 12 -25 16 -46 12 -44 -9 0 -9 2 -9
6 1 2 6 9 12 14 12 6 0 8 -4 5 -8 -5 -8 8 -12 47 -13 10 0 15 -5 11 -12 -4 -7
-4 -9 1 -5 4 4 15 2 23 -5 11 -8 14 -8 9 0 -4 6 -2 13 5 15 9 3 9 6 0 12 -7 4
-12 2 -12 -4 0 -6 -4 -8 -10 -5 -14 9 -12 24 3 21 25 -6 47 -18 47 -28 0 -5
-4 -7 -9 -4 -11 7 -8 -21 4 -31 4 -4 5 -3 1 4 -3 7 6 17 23 26 23 12 28 12 27
1 -1 -7 -6 -17 -11 -21 -4 -4 -5 -2 -1 4 5 9 2 11 -9 7 -9 -4 -15 -7 -13 -8 2
-1 12 -8 22 -16 13 -10 17 -10 12 -2 -4 6 -3 12 2 12 17 0 22 -13 9 -29 -10
-14 -10 -14 4 -4 9 7 20 9 24 5 5 -4 5 -2 2 4 -4 7 0 15 9 18 21 8 24 8 24 -5
0 -5 -4 -8 -9 -5 -5 4 -7 -4 -4 -15 6 -20 7 -20 19 7 12 25 13 25 7 4 -5 -22
-4 -23 10 -12 10 9 17 10 22 2 4 -7 12 -7 26 0 15 8 19 8 17 -2 -2 -7 3 -12
10 -10 7 1 22 -8 32 -20 19 -23 19 -23 35 -3 14 19 15 18 3 -10 -6 -16 -16
-35 -20 -42 -5 -6 -4 -14 2 -18 6 -4 9 -1 8 6 -4 16 22 19 41 5 11 -8 13 -8 7
2 -4 7 -2 12 4 12 6 0 8 4 5 10 -7 11 23 2 43 -13 9 -7 9 -13 2 -23 -9 -9 -7
-11 9 -7 11 3 17 11 15 18 -3 7 -1 16 5 20 7 4 9 -1 5 -12 -5 -16 -4 -16 10 1
9 11 16 15 16 9 0 -6 -7 -16 -15 -23 -8 -7 -13 -16 -10 -20 3 -5 1 -11 -5 -15
-5 -3 -10 -1 -10 5 0 6 -5 8 -11 4 -8 -4 -7 -9 2 -15 8 -4 20 -3 28 4 12 10
14 9 8 -8 -7 -18 -6 -19 6 -3 22 27 21 127 0 152 -13 15 -13 17 -2 9 13 -11
15 -9 13 10 -1 12 -3 24 -4 27 -1 3 -2 8 -1 13 1 4 -8 2 -18 -5 -11 -7 -17
-16 -14 -21 3 -5 -4 -3 -15 4 -12 7 -18 17 -15 22 3 5 9 3 14 -4 7 -11 9 -10
9 4 0 14 -5 17 -22 11 -20 -6 -21 -5 -9 10 7 9 9 16 3 16 -13 0 -24 -29 -15
-42 3 -6 1 -8 -5 -4 -6 3 -10 20 -10 36 1 17 5 27 11 23 6 -3 7 -1 3 6 -10 15
-29 3 -22 -14 7 -20 -19 -26 -42 -10 -10 8 -23 11 -28 7 -5 -4 -2 1 5 11 15
19 26 23 15 5 -5 -8 -2 -9 10 -5 10 4 20 7 22 7 2 0 4 4 4 9 0 4 -14 7 -31 5
-18 -2 -28 0 -24 6 3 6 -1 7 -10 4 -9 -4 -15 -3 -14 2 3 21 -2 38 -9 29 -4 -5
-14 -16 -23 -22 -13 -10 -16 -10 -16 2 0 8 4 12 8 9 4 -2 10 0 13 5 4 6 -7 8
-25 6 -26 -4 -29 -2 -19 11 11 12 10 13 -5 8 -14 -6 -16 -4 -10 6 5 9 4 11 -4
6 -6 -4 -9 -11 -6 -16 3 -5 1 -11 -4 -14 -6 -4 -8 7 -6 25 4 29 3 30 -9 13 -8
-10 -12 -23 -8 -29 3 -5 -2 -4 -11 4 -9 7 -14 17 -11 22 3 5 -5 8 -18 6 -14
-1 -22 3 -20 11 3 16 -10 16 -27 0 -10 -11 -12 -10 -9 2 2 11 -4 14 -22 12
-19 -2 -22 0 -10 8 8 5 12 10 8 11 -5 1 -12 3 -18 4 -5 1 -15 3 -21 4 -6 0 -8
10 -4 21 5 14 2 20 -10 20 -10 0 -13 5 -9 13 5 8 2 7 -9 -2 -15 -12 -20 -12
-35 1 -18 16 -47 13 -36 -3 3 -5 0 -9 -5 -9 -6 0 -11 5 -11 10 0 6 -7 10 -16
10 -8 0 -12 5 -9 10 5 7 11 8 18 1 8 -6 19 -5 31 5 11 8 15 14 9 14 -7 0 -15
-5 -18 -10 -4 -6 -11 -8 -16 -4 -5 3 -6 10 -3 16 4 6 2 8 -3 5 -6 -4 -14 0
-17 9 -4 11 -10 13 -19 6 -6 -5 -23 -8 -36 -6 -21 4 -22 3 -10 -13 13 -17 13
-17 -7 0 -11 9 -24 14 -29 10 -4 -5 -5 -2 -1 5 4 6 3 12 -3 12 -5 0 -12 8 -16
18 -3 9 -17 26 -32 36 -14 11 -23 14 -19 7 5 -8 1 -14 -13 -18 -12 -3 -18 -10
-14 -17 3 -6 -3 -2 -15 8 -16 14 -22 15 -22 6 0 -9 -5 -7 -14 5 -8 11 -12 23
-10 27 3 5 -2 8 -11 8 -9 0 -14 4 -10 9 3 5 0 13 -6 17 -7 4 -9 3 -6 -3 4 -6
-2 -13 -13 -16 -25 -6 -25 0 -2 27 14 18 15 19 0 8 -13 -11 -17 -11 -21 0 -2
7 -3 5 -1 -5 2 -13 -2 -17 -12 -13 -8 3 -14 0 -14 -6 0 -6 -3 -8 -6 -5 -4 4
-1 13 5 21 8 10 9 16 1 21 -6 3 -8 11 -5 16 4 5 1 9 -4 9 -14 0 -14 -13 1 -28
9 -9 8 -12 -6 -12 -10 0 -14 -5 -11 -11 4 -6 -2 -5 -14 3 -12 7 -19 19 -16 25
3 7 8 20 11 28 4 9 1 15 -7 15 -11 0 -11 3 1 11 12 8 12 10 1 7 -8 -2 -15 -12
-17 -21 -1 -10 2 -14 8 -11 7 4 8 2 4 -4 -5 -9 -13 -9 -27 -2 -23 13 -26 22
-4 14 11 -5 13 -2 9 10 -3 9 -9 14 -13 12 -4 -3 -7 4 -7 14 0 10 4 16 8 14 4
-3 8 -1 8 5 0 6 7 8 15 5 8 -4 12 -11 8 -17 -4 -6 -1 -7 6 -2 8 4 9 11 3 17
-14 14 -45 17 -62 4 -12 -8 -11 -6 1 9 9 11 14 26 11 34 -3 9 0 11 7 6 7 -4
10 -13 7 -21 -4 -11 -1 -12 13 -5 10 6 20 8 23 6 3 -3 5 2 5 10 0 10 -4 12
-12 5 -12 -10 -25 -4 -25 12 0 5 5 6 12 2 6 -4 8 -3 4 4 -3 5 0 13 6 15 8 3 6
6 -4 6 -10 1 -18 -3 -18 -8 0 -11 -26 -9 -37 3 -4 4 -1 6 7 4 9 -2 14 4 14 15
-2 14 1 15 12 6 8 -7 17 -9 21 -5 3 3 1 6 -5 6 -7 0 -12 5 -12 11 0 5 4 8 8 5
4 -3 8 7 8 22 -1 17 4 26 12 24 8 -1 11 2 7 8 -5 8 -11 7 -21 -1 -16 -13 -19
2 -3 18 8 8 6 19 -8 39 -10 15 -17 29 -15 31 1 2 2 4 1 6 -6 20 -5 36 2 31 5
-3 9 0 9 5 0 6 -4 11 -9 11 -6 0 -9 9 -8 19 0 11 5 17 10 14 5 -3 8 0 5 8 -3
8 -10 14 -15 14 -6 0 -15 4 -20 9 -5 5 -3 6 5 2 12 -7 15 0 15 36 0 10 4 15 8
12 8 -5 10 -1 13 36 1 8 8 14 15 12 13 -3 9 9 -13 37 -6 8 -12 27 -12 43 -1
15 -2 29 -4 31 -1 1 -3 21 -4 45 -2 33 2 46 16 53 10 6 16 14 13 19 -3 5 3 13
12 19 16 9 16 10 -4 8 -12 0 -19 -6 -16 -12 4 -5 2 -6 -3 -2 -5 5 -9 36 -10
70 -1 34 -5 76 -8 92 -3 17 -3 25 0 18 3 -7 12 -9 19 -7 11 5 12 9 2 19 -7 7
-16 10 -22 7 -5 -2 -5 1 2 8 6 7 9 19 6 26 -3 8 1 14 10 14 9 0 18 4 21 8 3 5
-4 8 -16 8 -12 -1 -22 6 -24 17 -1 9 2 15 7 11 16 -10 9 8 -8 22 -17 13 -17
14 1 8 16 -6 17 -4 7 14 -12 23 -15 43 -3 26 4 -7 15 -8 27 -3 15 6 16 8 4 8
-23 1 -49 33 -31 38 6 3 12 14 12 24 0 11 -4 18 -8 15 -4 -2 -8 3 -8 13 0 10
6 18 12 18 7 0 10 -5 8 -11 -2 -6 6 -17 18 -25 22 -13 22 -13 8 3 -18 23 -22
49 -6 43 7 -3 13 1 13 9 0 7 -4 11 -9 8 -13 -8 -51 -14 -44 -7 3 3 0 13 -7 22
-10 14 -10 14 3 5 16 -12 47 -11 58 2 4 4 -1 4 -12 0 -14 -5 -17 -3 -12 10 5
13 4 14 -7 6 -11 -9 -13 -5 -11 24 2 25 0 33 -9 27 -9 -5 -9 -3 -1 8 13 16 13
128 1 147 -5 7 -4 19 3 26 8 11 8 15 -2 19 -9 4 -9 6 -1 6 16 1 26 -16 13 -24
-17 -10 -11 -25 8 -19 14 5 15 4 2 -5 -8 -6 -10 -11 -4 -11 18 0 24 12 13 26
-9 10 -7 15 5 20 9 3 16 11 16 16 0 6 -6 5 -15 -2 -16 -13 -20 -5 -16 29 2 7
-2 11 -6 8 -5 -3 -8 15 -7 41 1 26 -3 52 -8 58 -5 8 -3 14 6 17 9 4 18 1 22
-5 4 -7 3 -8 -4 -4 -7 4 -12 2 -12 -3 0 -16 16 -13 31 6 8 9 9 14 3 10 -7 -4
-15 0 -18 9 -5 12 -2 15 9 10 9 -3 13 -2 10 4 -8 13 -35 13 -35 0 0 -5 -4 -10
-8 -10 -5 0 -9 7 -9 15 0 8 3 12 7 10 3 -2 12 0 19 4 11 7 10 12 -5 27 -19 19
-19 19 1 39 11 11 27 18 35 16 8 -1 3 7 -12 19 -16 12 -27 29 -27 38 1 13 2
14 5 2 3 -8 19 -23 37 -33 31 -18 31 -18 14 0 -16 19 -16 21 3 38 11 10 17 22
13 28 -3 5 -1 7 5 3 6 -3 13 2 15 11 3 10 4 6 4 -9 -1 -16 -5 -28 -9 -28 -4 0
-8 -8 -8 -17 0 -15 2 -14 14 3 8 10 23 19 33 19 10 0 17 6 16 13 -2 6 2 12 7
12 6 0 10 -4 10 -10 0 -5 5 -10 11 -10 5 0 8 4 5 9 -3 4 19 7 49 5 37 -3 55 0
55 8 0 20 11 1 16 -28 3 -16 8 -31 11 -34 3 -3 3 5 0 18 -3 15 -1 22 6 19 7
-3 11 -10 10 -16 -5 -19 14 -12 23 10 l9 20 30 -23 c16 -12 26 -18 22 -11 -8
14 18 37 33 28 6 -3 7 -11 4 -17 -5 -7 -2 -8 5 -3 9 5 10 10 2 18 -16 16 -13
31 3 18 11 -9 16 -9 22 0 4 7 3 9 -4 5 -6 -4 -11 1 -11 11 -1 10 -1 25 -2 33
-1 8 2 24 6 35 5 14 4 16 -3 6 -7 -9 -11 -10 -17 -2 -4 7 -16 9 -28 6 -17 -5
-19 -4 -7 4 13 10 8 15 -12 12 -4 0 -5 6 -2 14 4 8 10 15 16 15 5 0 2 8 -8 18
-10 9 -21 17 -25 17 -4 0 -11 3 -15 8 -11 11 -36 9 -29 -3 4 -6 11 -7 17 -4 7
4 8 2 4 -4 -4 -7 1 -10 14 -7 11 2 20 0 20 -5 0 -16 -45 -6 -58 12 -7 10 -18
16 -23 13 -5 -3 -6 1 -3 10 5 11 2 14 -9 9 -10 -3 -27 5 -44 22 -15 16 -30 28
-33 27 -3 -1 -7 7 -7 18 -2 19 -1 19 15 -1 13 -15 20 -17 32 -9 13 9 12 10 -2
5 -18 -5 -45 29 -40 48 2 5 -3 4 -11 -3 -8 -6 -13 -22 -11 -34 4 -21 4 -21 -6
1 -5 13 -8 28 -5 32 10 16 -27 29 -47 17 -13 -9 -21 -8 -29 0 -9 9 -7 11 9 6
16 -4 21 -1 19 15 0 11 -5 18 -9 16 -5 -3 -5 -11 -1 -17 5 -8 2 -8 -9 0 -8 7
-17 10 -20 8 -3 -3 -4 5 -3 19 3 23 1 24 -26 14 -17 -6 -33 -8 -36 -4 -4 3 1
6 9 6 9 0 19 7 22 16 9 23 7 31 -3 15 -5 -8 -17 -16 -25 -17 -9 -1 -14 2 -10
7 3 5 11 6 17 3 8 -5 8 -3 0 7 -10 10 -16 10 -25 1 -7 -7 -17 -12 -23 -12 -5
0 -4 4 3 8 14 10 25 52 12 52 -4 0 -11 -7 -14 -16 -4 -10 -2 -13 6 -8 7 4 8 3
4 -4 -12 -20 -26 -13 -23 11 1 16 -3 22 -16 21 -13 -2 -16 3 -12 20 2 11 2 15
-1 8 -4 -9 -11 -5 -24 11 -15 18 -28 23 -59 22 -23 -1 -41 3 -41 8 0 5 9 7 20
4 11 -3 22 -1 25 3 3 5 14 7 25 5 12 -2 18 0 15 4 -3 5 -21 7 -40 5 -26 -2
-34 0 -28 9 12 19 12 37 1 37 -6 0 -7 -7 -4 -16 4 -11 -1 -18 -14 -21 -11 -3
-17 -9 -14 -14 3 -5 -2 -6 -10 -3 -13 5 -12 9 7 25 l22 19 -27 -10 c-27 -9
-41 3 -15 13 7 3 5 6 -5 6 -10 1 -18 -4 -18 -9 0 -6 -16 6 -35 26 -20 20 -34
39 -31 41 2 3 13 -4 24 -15 11 -11 24 -17 28 -14 4 4 4 1 -1 -7 -6 -10 -4 -12
5 -6 9 5 11 4 6 -3 -5 -8 -1 -10 10 -5 11 4 13 8 6 11 -7 2 -9 9 -6 14 4 6 3
8 -3 5 -11 -7 -66 27 -57 36 4 3 -4 4 -16 2 -13 -3 -27 -10 -32 -17 -4 -7 -8
-8 -8 -2 0 5 5 15 11 21 9 9 8 16 -5 28 -9 9 -16 12 -16 6 0 -6 -5 -11 -11
-11 -6 0 -8 9 -4 23 7 22 7 22 -8 2 -8 -11 -13 -24 -10 -30 4 -6 2 -6 -3 -2
-5 5 -9 14 -9 20 0 7 -10 11 -22 11 -12 -1 -22 1 -21 5 3 27 -2 33 -19 20 -16
-13 -16 -13 0 11 9 13 17 29 17 35 0 5 -5 2 -11 -8 -8 -13 -15 -15 -28 -7 -10
5 -21 6 -25 3 -3 -4 -1 8 5 26 6 17 9 35 5 38 -3 4 -6 -2 -6 -13 0 -16 -2 -17
-11 -4 -8 12 -9 9 -5 -10 3 -14 3 -19 0 -12 -5 10 -9 10 -22 0 -15 -12 -16
-11 -2 6 13 16 12 20 -5 32 -11 7 -25 18 -32 24 -15 13 -26 13 -18 0 3 -5 1
-10 -4 -10 -17 0 -13 18 7 30 14 10 14 11 0 6 -22 -6 -30 4 -17 21 6 7 9 13 6
13 -2 0 -10 -7 -17 -15z m3 -40 c-3 -9 -8 -14 -10 -11 -3 3 -2 9 2 15 9 16 15
13 8 -4z m77 -39 c0 -2 -7 -7 -16 -10 -8 -3 -12 -2 -9 4 6 10 25 14 25 6z
m205 -146 c3 -5 1 -10 -4 -10 -6 0 -11 5 -11 10 0 6 2 10 4 10 3 0 8 -4 11
-10z m28 -35 c-3 -9 -8 -14 -10 -11 -3 3 -2 9 2 15 9 16 15 13 8 -4z m225
-148 c7 -5 10 -13 7 -18 -4 -5 -2 -9 3 -9 5 0 12 -9 15 -19 3 -14 1 -18 -9
-14 -8 3 -12 8 -9 12 2 4 -4 15 -14 23 -15 12 -22 13 -32 5 -11 -10 -11 -9 -1
4 6 9 9 18 6 22 -8 8 18 3 34 -6z m62 -56 c0 -6 -4 -12 -8 -15 -5 -3 -9 1 -9
9 0 8 4 15 9 15 4 0 8 -4 8 -9z m-440 -22 c0 -4 -6 -9 -13 -12 -8 -3 -14 0
-14 7 0 7 6 13 14 13 7 0 13 -4 13 -8z m544 -74 c-4 -8 -11 -12 -16 -9 -6 4
-5 10 3 15 19 12 19 11 13 -6z m96 -50 c0 -12 -19 -12 -23 0 -4 9 -1 12 9 8 7
-3 14 -7 14 -8z m215 -175 c-3 -5 -14 -10 -23 -9 -14 0 -13 2 3 9 27 11 27 11
20 0z m49 -71 c-3 -5 -10 -7 -15 -3 -5 3 -7 10 -3 15 3 5 10 7 15 3 5 -3 7
-10 3 -15z m-24 -25 c0 -8 -19 -13 -24 -6 -3 5 1 9 9 9 8 0 15 -2 15 -3z m25
-4 c-3 -5 -1 -10 5 -10 5 0 -4 -13 -22 -29 -24 -21 -36 -27 -45 -19 -7 6 -13
16 -13 22 0 8 2 8 8 0 4 -7 16 -1 32 17 24 27 48 40 35 19z m-865 -35 c0 -2
-9 -3 -19 -2 -11 0 -18 5 -15 9 4 6 34 0 34 -7z m550 -5 c-9 -6 -9 -9 1 -13 8
-3 4 -5 -7 -4 -18 1 -20 4 -11 18 6 10 15 15 20 12 5 -3 4 -9 -3 -13z m47 14
c-3 -3 -12 -4 -19 -1 -8 3 -5 6 6 6 11 1 17 -2 13 -5z m158 -15 c3 6 12 11 18
10 9 0 9 -2 0 -6 -7 -2 -13 -11 -13 -19 0 -20 -17 -9 -30 19 -10 20 -10 21 3
4 10 -12 17 -14 22 -8z m-278 -9 c0 -17 -15 -40 -27 -40 -4 0 -7 13 -7 28 2
29 33 41 34 12z m-47 -85 c-7 -8 -18 -15 -24 -15 -6 0 -2 7 8 15 25 19 32 19
16 0z m-15 -65 c3 -5 1 -10 -4 -10 -6 0 -11 5 -11 10 0 6 2 10 4 10 3 0 8 -4
11 -10z m-410 -170 c-3 -5 -12 -10 -18 -10 -7 0 -6 4 3 10 19 12 23 12 15 0z
m-1141 -722 c-6 -19 -5 -21 8 -11 19 16 32 5 16 -14 -9 -11 -14 -11 -29 3 -14
13 -15 19 -6 30 17 19 19 17 11 -8z m192 -54 c3 9 11 13 16 10 6 -4 3 -11 -8
-17 -21 -12 -49 -19 -40 -10 3 4 0 13 -6 22 -8 10 -4 9 9 -3 20 -17 23 -17 29
-2z m144 -15 c0 -5 -5 -9 -12 -9 -6 0 -8 3 -5 7 4 3 1 13 -6 22 -11 14 -10 14
6 2 9 -7 17 -17 17 -22z m100 1 c0 -3 -10 -7 -22 -7 -16 -2 -19 0 -9 6 8 6 9
11 3 15 -6 4 -15 -2 -21 -11 -9 -16 -10 -16 -11 -1 0 9 6 18 13 21 12 4 47
-13 47 -23z m80 -2 c0 -14 -21 -19 -35 -8 -8 6 -18 9 -23 6 -5 -3 -9 1 -9 9 0
10 5 11 18 4 26 -14 33 -11 18 8 -13 15 -12 15 9 2 12 -8 22 -17 22 -21z m316
16 c3 9 11 13 16 10 6 -4 3 -11 -8 -17 -21 -12 -49 -19 -40 -10 3 4 0 13 -6
22 -8 10 -4 9 9 -3 20 -17 23 -17 29 -2z m-104 -8 c3 3 8 -2 12 -11 4 -12 2
-14 -13 -6 -10 6 -21 8 -23 5 -3 -3 -8 2 -12 11 -4 12 -2 14 13 6 10 -6 21 -8
23 -5z m-469 -10 c4 -9 0 -13 -11 -12 -9 2 -18 8 -20 14 -5 17 25 15 31 -2z
m1302 -74 c-3 -3 -11 0 -18 7 -9 10 -8 11 6 5 10 -3 15 -9 12 -12z m5 -202 c0
-5 -4 -11 -10 -15 -5 -3 -6 -13 -3 -23 3 -9 3 -14 -2 -10 -4 4 -9 20 -10 37
-2 21 1 28 11 24 8 -3 14 -9 14 -13z m-3 -293 c-2 -6 -11 -11 -21 -13 -13 -2
-15 1 -6 11 7 8 8 20 4 27 -6 9 -3 9 9 -1 10 -8 16 -19 14 -24z m-1117 -42 c7
-9 8 -15 2 -15 -5 0 -12 7 -16 15 -3 8 -4 15 -2 15 2 0 9 -7 16 -15z m1111 -2
c12 -14 12 -16 0 -8 -11 6 -13 4 -9 -7 4 -8 0 -15 -7 -15 -10 0 -11 5 -5 17 5
10 6 20 3 24 -3 3 -4 6 -1 6 3 0 12 -8 19 -17z m-1821 -3 c0 -5 -5 -10 -11
-10 -5 0 -7 5 -4 10 3 6 8 10 11 10 2 0 4 -4 4 -10z m1316 -83 c5 -1 9 -8 10
-15 1 -7 -3 -9 -9 -5 -14 9 -19 10 -47 12 -11 0 -20 5 -20 11 0 5 6 7 14 4 8
-3 17 0 21 6 6 9 9 9 15 0 4 -6 11 -12 16 -13z m78 4 c-3 -3 -9 -5 -12 -4 -4
0 -14 -3 -23 -7 -10 -6 -16 -5 -16 4 0 7 12 12 29 12 15 0 25 -2 22 -5z
m-2564 -186 c0 -2 -10 -9 -22 -15 -22 -11 -22 -10 -4 4 21 17 26 19 26 11z
m1533 -42 c10 -2 15 1 12 7 -4 6 1 7 11 3 11 -4 13 -8 6 -11 -7 -2 -10 -8 -7
-13 4 -5 0 -6 -8 -3 -8 3 -18 0 -22 -5 -3 -6 -11 -9 -16 -5 -5 3 -6 10 -3 16
5 7 1 9 -9 5 -11 -4 -14 -2 -10 8 3 8 10 12 17 8 6 -4 19 -9 29 -10z m103 -5
c5 4 5 3 1 -2 -12 -15 -34 -15 -34 0 0 9 4 11 12 4 7 -5 16 -6 21 -2z m-502
-14 c3 -8 2 -12 -4 -9 -6 3 -10 10 -10 16 0 14 7 11 14 -7z m2015 -7 c0 -9 -2
-9 -5 0 -3 7 -13 9 -22 6 -14 -4 -14 -3 -2 5 16 12 30 7 29 -11z m-2299 -7 c6
-11 8 -20 6 -20 -3 0 -10 9 -16 20 -6 11 -8 20 -6 20 3 0 10 -9 16 -20z m2450
-42 c0 -5 -5 -8 -11 -8 -5 0 -7 5 -4 10 3 6 1 10 -4 10 -6 0 -11 -5 -11 -10 0
-6 -6 -5 -14 2 -23 21 1 41 25 20 10 -9 19 -20 19 -24z m-2626 18 c-10 -8 -21
-12 -24 -10 -5 6 21 24 34 24 6 0 1 -6 -10 -14z m96 2 c0 -5 -4 -7 -9 -4 -4 3
-17 -1 -27 -9 -25 -19 -33 -19 -29 3 2 9 4 18 4 19 3 7 61 -2 61 -9z m-134
-13 c-2 -14 -25 -44 -27 -34 0 2 -2 12 -4 22 -2 9 1 15 5 12 5 -3 11 -1 15 5
9 14 14 12 11 -5z m1500 2 c8 3 14 1 14 -4 0 -5 -11 -9 -24 -9 -17 0 -22 4
-18 15 3 9 7 11 9 4 3 -7 11 -9 19 -6z m-1606 -27 c0 -5 -4 -10 -10 -10 -5 0
-10 5 -10 10 0 6 5 10 10 10 6 0 10 -4 10 -10z m1812 3 c-6 -2 -9 -10 -6 -15
4 -7 2 -8 -5 -4 -13 9 -5 26 12 25 9 0 8 -2 -1 -6z m1076 -34 c-14 -9 -38 0
-38 13 0 5 4 7 9 3 5 -3 13 0 17 6 4 8 9 7 15 -2 4 -8 3 -16 -3 -20z m-766
-24 c20 4 33 -11 19 -19 -5 -4 -13 -2 -16 4 -5 8 -11 7 -21 -1 -11 -9 -15 -8
-20 5 -5 13 -9 14 -20 5 -9 -7 -14 -8 -14 -1 0 14 22 21 40 12 8 -4 23 -6 32
-5z m873 -22 c6 3 18 1 26 -4 11 -7 11 -9 1 -9 -7 0 -10 -5 -7 -10 4 -6 -8 -2
-26 8 -18 10 -35 24 -37 32 -4 10 0 9 13 -3 10 -10 23 -16 30 -14z m-3311 -8
c2 -6 -2 -12 -10 -12 -7 0 -15 6 -18 12 -2 6 2 12 10 12 7 0 15 -6 18 -12z
m-109 -15 c-3 -5 -2 -10 4 -10 5 0 13 5 16 10 8 13 25 13 25 -1 0 -5 -4 -8 -9
-5 -5 3 -14 -1 -21 -10 -10 -11 -15 -12 -21 -2 -7 12 -3 28 7 28 3 0 2 -4 -1
-10z m2705 -6 c0 -8 -4 -12 -10 -9 -5 3 -10 10 -10 16 0 5 5 9 10 9 6 0 10 -7
10 -16z m130 -11 c0 -5 -4 -14 -9 -21 -7 -11 -9 -11 -14 1 -3 8 -3 18 0 21 9
8 23 7 23 -1z m227 -65 c-3 -8 -6 -5 -6 6 -1 11 2 17 5 13 3 -3 4 -12 1 -19z
m-3280 -7 c-1 -15 -4 -17 -14 -9 -7 5 -10 14 -7 19 10 16 23 9 21 -10z m3429
-23 c5 4 5 3 1 -2 -12 -15 -34 -15 -34 0 0 9 4 11 12 4 7 -5 16 -6 21 -2z
m534 -12 c0 -2 -8 -10 -17 -17 -16 -13 -17 -12 -4 4 13 16 21 21 21 13z
m-4410 -116 c-24 -15 -36 -11 -14 4 10 8 21 12 24 10 2 -3 -2 -9 -10 -14z
m4256 7 c14 17 14 16 4 -5 -12 -25 -31 -21 -29 6 1 15 2 14 6 -1 5 -18 5 -18
19 0z m349 -7 c3 -5 1 -10 -4 -10 -6 0 -11 5 -11 10 0 6 2 10 4 10 3 0 8 -4
11 -10z m-250 -28 c-3 -3 -11 0 -18 7 -9 10 -8 11 6 5 10 -3 15 -9 12 -12z
m95 -26 c0 -3 -4 -8 -10 -11 -5 -3 -10 -1 -10 4 0 6 5 11 10 11 6 0 10 -2 10
-4z m-4580 -32 c0 -8 -19 -13 -24 -6 -3 5 1 9 9 9 8 0 15 -2 15 -3z m4617 -12
c0 -10 -7 -19 -13 -19 -9 0 -10 5 -3 19 5 10 12 18 14 18 2 0 3 -8 2 -18z"/>
<path d="M4282 3270 c-12 -12 -22 -24 -22 -27 0 -4 11 4 25 17 23 22 29 30 22
30 -2 0 -13 -9 -25 -20z"/>
<path d="M3903 3235 c0 -8 4 -12 9 -9 4 3 8 9 8 15 0 5 -4 9 -8 9 -5 0 -9 -7
-9 -15z"/>
<path d="M3205 4181 c-6 -11 9 -23 19 -14 9 9 7 23 -3 23 -6 0 -12 -4 -16 -9z"/>
<path d="M3097 4155 c-4 -8 -3 -16 1 -19 4 -3 9 4 9 15 2 23 -3 25 -10 4z"/>
<path d="M3312 4152 c-9 -6 -5 -12 15 -20 24 -11 26 -10 11 1 -10 8 -15 17
-11 20 9 9 1 8 -15 -1z"/>
<path d="M3070 4120 c-13 -8 -12 -10 3 -10 9 0 17 5 17 10 0 12 -1 12 -20 0z"/>
<path d="M3386 4073 c-3 -8 -2 -12 3 -8 5 3 11 0 13 -7 3 -7 7 -3 10 8 6 23
-18 30 -26 7z"/>
<path d="M3440 4040 c-10 -6 -11 -10 -2 -10 6 0 11 -5 10 -12 -2 -7 2 -12 7
-13 6 0 16 -4 23 -8 7 -5 12 -4 12 2 0 6 -5 11 -11 11 -8 0 -8 5 1 15 9 10 9
15 1 15 -6 0 -11 -5 -11 -11 0 -5 -5 -7 -10 -4 -6 4 -8 11 -5 16 8 11 4 11
-15 -1z"/>
<path d="M3035 4010 c-3 -5 -1 -10 4 -10 6 0 11 5 11 10 0 6 -2 10 -4 10 -3 0
-8 -4 -11 -10z"/>
<path d="M3610 3940 c0 -5 5 -10 11 -10 5 0 7 5 4 10 -3 6 -8 10 -11 10 -2 0
-4 -4 -4 -10z"/>
<path d="M3153 3878 c1 -16 5 -28 9 -28 10 0 9 9 -2 35 -8 17 -8 16 -7 -7z"/>
<path d="M3230 3820 c0 -5 5 -10 11 -10 5 0 7 5 4 10 -3 6 -8 10 -11 10 -2 0
-4 -4 -4 -10z"/>
<path d="M3213 3795 c0 -8 4 -12 9 -9 5 3 6 10 3 15 -9 13 -12 11 -12 -6z"/>
<path d="M3313 3751 c0 -11 6 -19 12 -18 5 1 9 -4 7 -11 -2 -10 2 -10 18 0 11
7 20 16 20 21 0 4 -4 6 -9 3 -5 -3 -14 1 -21 9 -17 21 -29 19 -27 -4z m28 -8
c13 -16 12 -17 -3 -4 -17 13 -22 21 -14 21 2 0 10 -8 17 -17z"/>
<path d="M4122 3499 c2 -6 7 -10 12 -9 5 1 12 -4 17 -11 4 -8 12 -10 16 -5 4
5 2 11 -5 13 -6 3 -10 8 -8 12 3 4 -4 8 -15 8 -11 1 -19 -3 -17 -8z"/>
<path d="M4175 3500 c3 -5 8 -10 11 -10 2 0 4 5 4 10 0 6 -5 10 -11 10 -5 0
-7 -4 -4 -10z"/>
<path d="M3375 3471 c-3 -5 -2 -12 3 -15 5 -3 9 1 9 9 0 17 -3 19 -12 6z"/>
<path d="M4187 3465 c3 -8 9 -12 14 -9 12 7 11 11 -5 17 -10 4 -13 1 -9 -8z"/>
<path d="M2634 3397 c-3 -8 -4 -49 -2 -93 l3 -79 130 0 130 0 0 90 0 90 -128
3 c-100 2 -129 0 -133 -11z"/>
<path d="M2964 3397 c-3 -8 -4 -49 -2 -93 l3 -79 130 0 130 0 0 90 0 90 -128
3 c-100 2 -129 0 -133 -11z"/>
<path d="M4313 3389 c-2 -23 3 -25 10 -4 4 8 3 16 -1 19 -4 3 -9 -4 -9 -15z"/>
<path d="M3376 3387 c3 -10 9 -15 12 -12 3 3 0 11 -7 18 -10 9 -11 8 -5 -6z"/>
<path d="M4285 3380 c3 -5 8 -10 11 -10 2 0 4 5 4 10 0 6 -5 10 -11 10 -5 0
-7 -4 -4 -10z"/>
<path d="M3398 3313 c10 -4 10 -8 0 -21 -9 -12 -6 -11 10 2 12 11 22 20 22 20
0 1 -10 2 -22 3 -13 0 -17 -1 -10 -4z"/>
<path d="M4348 3313 c7 -3 16 -2 19 1 4 3 -2 6 -13 5 -11 0 -14 -3 -6 -6z"/>
<path d="M3398 3238 c10 -13 10 -17 0 -21 -8 -3 -8 -6 -2 -6 6 -1 18 7 25 17
7 9 9 14 5 10 -5 -4 -16 -2 -25 5 -14 10 -14 10 -3 -5z"/>
<path d="M4066 3238 c3 -4 1 -8 -4 -8 -5 0 -9 -7 -9 -15 0 -20 2 -19 20 8 12
19 13 24 2 24 -8 0 -12 -4 -9 -9z"/>
<path d="M4104 3242 c3 -5 0 -13 -6 -15 -9 -4 -10 -6 -1 -6 17 -1 25 16 12 25
-7 4 -9 3 -5 -4z"/>
<path d="M4142 3241 c-11 -6 -10 -10 0 -19 11 -8 14 -7 14 9 0 10 0 19 -1 19
0 0 -6 -4 -13 -9z"/>
<path d="M2634 3177 c-3 -8 -4 -49 -2 -93 l3 -79 130 0 130 0 0 90 0 90 -128
3 c-100 2 -129 0 -133 -11z"/>
<path d="M2964 3177 c-3 -8 -4 -49 -2 -93 l3 -79 130 0 130 0 0 90 0 90 -128
3 c-100 2 -129 0 -133 -11z"/>
<path d="M3394 3164 c-10 -8 -13 -13 -6 -9 22 11 37 -7 17 -21 -16 -12 -16
-13 2 -11 14 1 19 8 18 24 -1 31 -8 35 -31 17z"/>
<path d="M3896 3138 c3 -4 11 -5 19 -1 21 7 19 12 -4 10 -11 0 -18 -5 -15 -9z"/>
<path d="M3882 3116 c7 -8 17 -12 22 -9 4 3 2 9 -5 14 -22 13 -31 11 -17 -5z"/>
<path d="M3395 3100 c-3 -5 -1 -10 4 -10 6 0 11 5 11 10 0 6 -2 10 -4 10 -3 0
-8 -4 -11 -10z"/>
<path d="M3895 3001 c-3 -6 -12 -8 -18 -4 -9 5 -9 3 0 -8 10 -12 10 -18 0 -28
-9 -10 -6 -10 11 0 12 8 17 16 11 18 -8 2 -7 6 2 12 7 4 11 11 7 14 -3 4 -9 1
-13 -4z"/>
<path d="M3890 2939 c0 -5 -5 -7 -12 -3 -7 4 -8 3 -4 -4 4 -6 13 -9 21 -5 17
6 20 23 5 23 -5 0 -10 -5 -10 -11z"/>
<path d="M3889 2903 c-13 -16 -12 -17 4 -4 16 13 21 21 13 21 -2 0 -10 -8 -17
-17z"/>
<path d="M3910 2820 c0 -5 5 -10 11 -10 5 0 7 5 4 10 -3 6 -8 10 -11 10 -2 0
-4 -4 -4 -10z"/>
<path d="M3880 2803 c7 -3 8 -9 1 -17 -8 -9 -7 -18 2 -30 11 -15 13 -14 12 15
0 18 -6 34 -13 35 -7 1 -8 0 -2 -3z"/>
<path d="M3913 2735 c0 -8 4 -12 9 -9 5 3 6 10 3 15 -9 13 -12 11 -12 -6z"/>
<path d="M3880 2720 c-13 -8 -12 -10 3 -10 9 0 17 5 17 10 0 12 -1 12 -20 0z"/>
<path d="M3879 2698 c-7 -23 -2 -49 10 -54 26 -12 41 -13 35 -3 -3 5 -10 7
-15 4 -10 -7 -30 35 -22 48 2 4 2 7 -1 7 -3 0 -6 -1 -7 -2z"/>
<path d="M3416 2646 c7 -19 20 -21 30 -3 4 6 4 9 -1 5 -4 -4 -14 -3 -22 4 -11
8 -12 7 -7 -6z"/>
<path d="M3408 2621 c15 -13 18 -21 10 -24 -8 -4 -9 -6 -2 -6 6 -1 18 7 25 17
7 9 9 14 4 9 -4 -4 -20 0 -34 9 l-26 15 23 -20z"/>
<path d="M3385 2579 c-4 -6 -5 -12 -2 -15 2 -3 7 2 10 11 7 17 1 20 -8 4z"/>
<path d="M2459 2568 c-6 -23 -7 -48 -1 -48 4 0 8 11 8 25 0 21 -4 33 -7 23z"/>
<path d="M2532 2563 c2 -4 -1 -10 -7 -11 -5 -2 -15 -8 -22 -13 -7 -7 -13 -5
-16 3 -4 9 -6 9 -6 1 -1 -16 16 -26 24 -13 5 8 11 7 21 -1 12 -10 17 -9 27 0
9 10 8 11 -8 5 -17 -7 -18 -6 -7 8 9 11 10 18 2 23 -6 4 -9 3 -8 -2z"/>
<path d="M2597 2550 c7 -25 19 -34 28 -20 5 8 11 7 21 -1 12 -10 17 -9 27 0 9
10 8 11 -7 5 -13 -5 -17 -4 -13 3 8 12 -11 12 -30 0 -8 -5 -13 -3 -13 7 0 8
-4 17 -9 20 -5 4 -7 -3 -4 -14z"/>
<path d="M2932 2545 c-1 -14 2 -25 6 -25 5 0 8 9 7 20 -2 29 -10 33 -13 5z"/>
<path d="M3039 2565 c-1 -3 -2 -10 -3 -17 0 -6 -7 -13 -15 -16 -9 -3 -11 0 -6
8 6 9 4 11 -4 5 -9 -5 -10 -10 -2 -18 7 -7 15 -6 26 3 10 8 15 9 15 1 0 -6 5
-11 12 -11 6 0 4 7 -5 18 -10 10 -14 22 -10 25 3 4 3 7 0 7 -4 0 -8 -2 -8 -5z"/>
<path d="M3092 2558 c2 -7 -3 -12 -11 -10 -12 3 -12 0 -1 -13 7 -8 15 -13 18
-10 10 10 10 35 1 41 -5 3 -8 0 -7 -8z"/>
<path d="M3157 2555 c6 -18 5 -19 -13 -5 -18 14 -18 14 -4 -4 14 -18 13 -19
-5 -12 -16 6 -17 5 -8 -5 9 -9 15 -9 27 0 11 9 15 9 19 -1 2 -7 7 -11 10 -8 3
3 -3 16 -14 30 -15 20 -18 21 -12 5z"/>
<path d="M3404 2562 c3 -5 0 -12 -6 -15 -7 -2 -10 -7 -7 -11 3 -4 12 0 18 8 9
11 9 16 0 22 -7 4 -9 3 -5 -4z"/>
<path d="M2573 2540 c-1 -11 2 -20 7 -20 4 0 7 7 6 15 -3 23 -12 26 -13 5z"/>
<path d="M2390 2539 c0 -13 33 -20 44 -9 8 8 6 9 -8 4 -12 -5 -17 -4 -13 3 3
5 0 10 -8 10 -8 0 -15 -4 -15 -8z"/>
<path d="M2690 2535 c0 -8 4 -15 10 -15 5 0 7 7 4 15 -4 8 -8 15 -10 15 -2 0
-4 -7 -4 -15z"/>
<path d="M2716 2538 c3 -5 10 -6 15 -3 13 9 11 12 -6 12 -8 0 -12 -4 -9 -9z"/>
<path d="M2748 2538 c-5 -11 -2 -15 10 -14 9 2 18 9 20 17 3 12 2 12 -6 0 -8
-11 -10 -11 -14 0 -3 10 -6 9 -10 -3z"/>
<path d="M2828 2538 c-5 -11 -2 -15 10 -14 9 2 18 9 20 17 3 12 2 12 -6 0 -8
-11 -10 -11 -14 0 -3 10 -6 9 -10 -3z"/>
<path d="M2905 2541 c-3 -5 -2 -12 3 -15 5 -3 9 1 9 9 0 17 -3 19 -12 6z"/>
<path d="M2961 2543 c-1 -17 16 -25 25 -12 4 7 3 9 -4 5 -5 -3 -13 0 -15 6 -4
9 -6 10 -6 1z"/>
<path d="M3196 2538 c3 -5 10 -6 15 -3 13 9 11 12 -6 12 -8 0 -12 -4 -9 -9z"/>
<path d="M3228 2538 c-5 -11 -2 -15 10 -14 9 2 18 9 20 17 3 12 2 12 -6 0 -8
-11 -10 -11 -14 0 -3 10 -6 9 -10 -3z"/>
<path d="M3276 2538 c3 -5 10 -6 15 -3 13 9 11 12 -6 12 -8 0 -12 -4 -9 -9z"/>
<path d="M3326 2534 c-5 -14 -4 -15 9 -4 17 14 19 20 6 20 -5 0 -12 -7 -15
-16z"/>
<path d="M3365 2540 c3 -5 8 -10 11 -10 2 0 4 5 4 10 0 6 -5 10 -11 10 -5 0
-7 -4 -4 -10z"/>
<path d="M3873 2491 c-12 -19 0 -41 14 -27 4 3 0 6 -8 6 -12 0 -12 2 0 9 7 5
12 14 10 20 -2 6 -9 3 -16 -8z"/>
<path d="M2270 2420 c0 -5 5 -10 11 -10 5 0 7 5 4 10 -3 6 -8 10 -11 10 -2 0
-4 -4 -4 -10z"/>
<path d="M3873 2412 c0 -12 4 -22 8 -22 9 0 21 31 14 38 -3 3 -5 -1 -5 -9 0
-12 -2 -11 -10 1 -7 12 -9 10 -7 -8z"/>
<path d="M2270 2393 c0 -15 18 -35 23 -27 3 5 -1 15 -9 22 -8 7 -14 9 -14 5z"/>
<path d="M3906 2378 c3 -5 10 -6 15 -3 13 9 11 12 -6 12 -8 0 -12 -4 -9 -9z"/>
<path d="M3870 2365 c-8 -9 -8 -15 -2 -15 12 0 26 19 19 26 -2 2 -10 -2 -17
-11z"/>
<path d="M2235 2351 c-3 -5 -2 -12 3 -15 5 -3 9 1 9 9 0 17 -3 19 -12 6z"/>
<path d="M2271 2336 c-9 -10 -9 -16 -1 -21 8 -5 8 -10 0 -20 -8 -10 -8 -15 1
-20 8 -6 7 -10 -2 -16 -11 -7 -10 -9 5 -9 12 0 16 5 13 15 -4 8 -2 17 4 21 6
3 6 10 1 17 -5 7 -8 20 -7 30 4 21 1 21 -14 3z"/>
<path d="M3874 2305 c3 -23 12 -26 13 -5 1 11 -2 20 -7 20 -4 0 -7 -7 -6 -15z"/>
<path d="M2235 2300 c3 -5 8 -10 11 -10 2 0 4 5 4 10 0 6 -5 10 -11 10 -5 0
-7 -4 -4 -10z"/>
<path d="M3907 2259 c7 -7 15 -10 18 -7 3 3 -2 9 -12 12 -14 6 -15 5 -6 -5z"/>
<path d="M3866 2242 c-2 -4 0 -14 6 -22 8 -12 9 -12 4 2 -3 10 1 18 12 21 16
4 16 5 0 6 -9 0 -19 -3 -22 -7z"/>
<path d="M3880 2200 c-13 -8 -12 -10 3 -10 9 0 17 5 17 10 0 12 -1 12 -20 0z"/>
<path d="M2274 2162 c4 -3 14 -7 22 -8 9 -1 13 0 10 4 -4 3 -14 7 -22 8 -9 1
-13 0 -10 -4z"/>
<path d="M3873 2145 c0 -8 4 -12 9 -9 4 3 8 9 8 15 0 5 -4 9 -8 9 -5 0 -9 -7
-9 -15z"/>
<path d="M2856 2133 c-3 -4 -6 -11 -6 -17 0 -6 5 -4 10 4 6 10 10 11 10 3 0
-7 5 -13 10 -13 6 0 10 4 10 9 0 11 -26 22 -34 14z"/>
<path d="M3230 2120 c0 -5 5 -10 10 -10 6 0 10 5 10 10 0 6 -4 10 -10 10 -5 0
-10 -4 -10 -10z"/>
<path d="M3880 2120 c-12 -7 -10 -9 8 -7 12 0 22 5 22 9 0 11 -12 10 -30 -2z"/>
<path d="M2706 2098 c3 -5 10 -6 15 -3 13 9 11 12 -6 12 -8 0 -12 -4 -9 -9z"/>
<path d="M2900 2106 c0 -2 7 -6 15 -10 8 -3 15 -1 15 4 0 6 -7 10 -15 10 -8 0
-15 -2 -15 -4z"/>
<path d="M3015 2100 c3 -5 8 -10 11 -10 2 0 4 5 4 10 0 6 -5 10 -11 10 -5 0
-7 -4 -4 -10z"/>
<path d="M3356 2102 c-2 -4 4 -8 14 -8 10 0 16 4 14 8 -3 4 -9 8 -14 8 -5 0
-11 -4 -14 -8z"/>
<path d="M3420 2042 c0 -5 7 -9 15 -9 8 0 12 4 9 9 -3 4 -9 8 -15 8 -5 0 -9
-4 -9 -8z"/>
<path d="M3885 2040 c-4 -6 -10 -8 -14 -6 -10 6 -8 -40 2 -50 12 -12 8 -26 -5
-18 -10 6 -10 5 -1 -8 7 -8 11 -17 8 -20 -3 -2 8 -4 25 -4 16 0 27 3 24 8 -3
5 -10 6 -15 3 -18 -12 -29 5 -18 27 7 13 7 18 1 14 -6 -3 -13 -2 -16 3 -4 5 2
12 11 14 15 4 15 5 -2 6 -19 1 -18 3 5 21 14 11 20 20 13 20 -6 0 -15 -5 -18
-10z"/>
<path d="M3433 1993 c-7 -3 -13 -12 -13 -21 1 -15 2 -14 11 2 9 15 13 16 20 5
6 -9 9 -10 9 -2 0 15 -11 22 -27 16z"/>
<path d="M3873 1905 c0 -8 4 -12 9 -9 4 3 8 9 8 15 0 5 -4 9 -8 9 -5 0 -9 -7
-9 -15z"/>
<path d="M3896 1893 c-6 -14 -5 -15 5 -6 7 7 10 15 7 18 -3 3 -9 -2 -12 -12z"/>
<path d="M3430 1891 c0 -5 7 -12 16 -15 14 -5 15 -4 4 9 -14 17 -20 19 -20 6z"/>
<path d="M3894 1816 c1 -8 5 -18 8 -22 4 -3 5 1 4 10 -1 8 -5 18 -8 22 -4 3
-5 -1 -4 -10z"/>
<path d="M3869 1788 c-8 -28 -5 -49 8 -59 15 -13 15 -12 5 8 -8 14 -9 24 -2
28 13 8 13 25 0 25 -5 0 -10 -1 -11 -2z"/>
<path d="M3424 1765 c-10 -8 -14 -15 -8 -15 6 0 17 7 24 15 16 19 9 19 -16 0z"/>
<path d="M3895 1760 c-3 -5 -1 -10 4 -10 6 0 11 5 11 10 0 6 -2 10 -4 10 -3 0
-8 -4 -11 -10z"/>
<path d="M3437 1743 c-11 -11 -8 -21 9 -27 13 -5 14 -4 6 7 -7 8 -9 17 -5 20
3 4 4 7 1 7 -2 0 -8 -3 -11 -7z"/>
<path d="M3865 1701 c-3 -5 0 -13 6 -16 6 -4 8 -17 5 -29 -4 -15 -1 -23 8 -23
10 0 12 7 6 26 -4 14 -5 32 -3 39 5 14 -13 17 -22 3z"/>
<path d="M3424 1605 c-10 -8 -14 -15 -8 -15 6 0 17 7 24 15 16 19 9 19 -16 0z"/>
<path d="M3895 1600 c-3 -5 -1 -10 4 -10 6 0 11 5 11 10 0 6 -2 10 -4 10 -3 0
-8 -4 -11 -10z"/>
<path d="M2486 1582 c-3 -5 1 -9 9 -9 8 0 12 4 9 9 -3 4 -7 8 -9 8 -2 0 -6 -4
-9 -8z"/>
<path d="M2148 1558 c-9 -5 -6 -7 9 -5 12 2 25 6 28 8 8 9 -23 6 -37 -3z"/>
<path d="M2213 1553 c-3 -7 -9 -11 -13 -8 -5 3 -11 2 -14 -3 -2 -4 6 -8 19 -8
16 0 21 4 17 16 -4 11 0 10 16 -4 12 -11 25 -16 28 -13 4 4 -1 9 -10 13 -9 3
-14 9 -11 13 2 4 -3 8 -11 8 -9 0 -18 -6 -21 -14z"/>
<path d="M2270 1560 c0 -5 5 -10 11 -10 5 0 7 5 4 10 -3 6 -8 10 -11 10 -2 0
-4 -4 -4 -10z"/>
<path d="M2390 1563 c0 -5 5 -15 10 -23 7 -12 9 -10 7 8 -1 19 -17 33 -17 15z"/>
<path d="M2556 1561 c-8 -12 16 -30 34 -28 31 5 57 37 30 37 -5 0 -9 -5 -7
-12 2 -11 -10 -13 -44 -9 -5 0 -7 6 -4 11 3 6 4 10 1 10 -3 0 -7 -4 -10 -9z"/>
<path d="M2110 1556 c0 -2 8 -10 18 -17 15 -13 16 -12 3 4 -13 16 -21 21 -21
13z"/>
<path d="M2313 1553 c-22 -8 -14 -19 12 -19 14 0 25 3 25 7 0 10 -23 17 -37
12z"/>
<path d="M2468 1553 c7 -3 16 -2 19 1 4 3 -2 6 -13 5 -11 0 -14 -3 -6 -6z"/>
<path d="M2501 1544 c0 -11 3 -14 6 -6 3 7 2 16 -1 19 -3 4 -6 -2 -5 -13z"/>
<path d="M2857 1552 c1 -3 -4 -13 -12 -22 -13 -14 -13 -17 0 -17 8 0 12 4 9 8
-2 4 2 9 8 12 9 3 10 7 2 15 -6 5 -9 7 -7 4z"/>
<path d="M1987 1535 c3 -8 9 -12 14 -9 12 7 11 11 -5 17 -10 4 -13 1 -9 -8z"/>
<path d="M2360 1542 c0 -5 7 -9 15 -9 8 0 12 4 9 9 -3 4 -9 8 -15 8 -5 0 -9
-4 -9 -8z"/>
<path d="M2420 1542 c0 -5 7 -9 15 -9 8 0 15 4 15 9 0 4 -7 8 -15 8 -8 0 -15
-4 -15 -8z"/>
<path d="M2930 1540 c0 -5 5 -10 11 -10 5 0 7 5 4 10 -3 6 -8 10 -11 10 -2 0
-4 -4 -4 -10z"/>
<path d="M1948 1528 c-7 -17 15 -19 29 -3 4 4 3 5 -4 2 -6 -4 -13 -2 -15 5 -3
8 -6 6 -10 -4z"/>
<path d="M1787 1509 c4 -13 8 -18 11 -10 2 7 -1 18 -6 23 -8 8 -9 4 -5 -13z"/>
<path d="M2880 1520 c-12 -7 -10 -9 8 -7 12 0 22 5 22 9 0 11 -12 10 -30 -2z"/>
<path d="M2987 1515 c3 -8 9 -12 14 -9 12 7 11 11 -5 17 -10 4 -13 1 -9 -8z"/>
<path d="M1719 1518 c-5 -18 -6 -38 -1 -34 7 8 12 36 6 36 -2 0 -4 -1 -5 -2z"/>
<path d="M1760 1511 c0 -6 4 -13 10 -16 6 -3 7 1 4 9 -7 18 -14 21 -14 7z"/>
<path d="M3112 1515 c4 -4 3 -15 -2 -24 -7 -14 -4 -17 17 -17 21 0 22 2 9 11
-9 7 -13 14 -10 17 3 4 -1 9 -8 14 -7 4 -10 4 -6 -1z"/>
<path d="M1682 1494 c-7 -8 -8 -14 -3 -14 10 0 25 19 20 25 -2 1 -10 -3 -17
-11z"/>
<path d="M3390 1480 c0 -5 5 -10 10 -10 6 0 10 5 10 10 0 6 -4 10 -10 10 -5 0
-10 -4 -10 -10z"/>
<path d="M1452 1459 c2 -7 -3 -14 -9 -15 -7 -1 -17 -2 -23 -3 -5 0 -10 -6 -10
-12 0 -8 4 -9 13 0 8 6 16 9 19 6 3 -3 11 1 17 9 8 10 9 16 1 21 -6 4 -9 1 -8
-6z"/>
<path d="M1356 1442 c-2 -4 -1 -14 3 -21 6 -9 11 -10 15 -2 4 6 2 11 -4 11 -6
0 -8 5 -5 10 3 6 4 10 1 10 -3 0 -7 -4 -10 -8z"/>
<path d="M1157 1373 c3 -7 6 -13 8 -13 2 0 5 6 8 13 3 8 -1 14 -8 14 -7 0 -11
-6 -8 -14z"/>
<path d="M1210 1379 c0 -5 5 -7 10 -4 6 3 10 8 10 11 0 2 -4 4 -10 4 -5 0 -10
-5 -10 -11z"/>
<path d="M1110 1349 c0 -5 5 -7 10 -4 6 3 10 8 10 11 0 2 -4 4 -10 4 -5 0 -10
-5 -10 -11z"/>
<path d="M1060 1342 c0 -5 7 -9 15 -9 8 0 12 4 9 9 -3 4 -9 8 -15 8 -5 0 -9
-4 -9 -8z"/>
<path d="M930 1299 c0 -4 11 -6 25 -5 14 0 25 4 25 8 0 4 -11 7 -25 6 -14 -1
-25 -5 -25 -9z"/>
<path d="M845 1280 c-3 -6 1 -7 9 -4 18 7 21 14 7 14 -6 0 -13 -4 -16 -10z"/>
<path d="M3905 1271 c-3 -5 -1 -12 5 -16 5 -3 10 1 10 9 0 18 -6 21 -15 7z"/>
<path d="M626 1202 c-3 -5 1 -9 9 -9 8 0 12 4 9 9 -3 4 -7 8 -9 8 -2 0 -6 -4
-9 -8z"/>
<path d="M695 1200 c3 -5 8 -10 11 -10 2 0 4 5 4 10 0 6 -5 10 -11 10 -5 0 -7
-4 -4 -10z"/>
<path d="M2197 1203 c-4 -3 -7 -13 -7 -22 1 -13 3 -13 11 2 11 19 8 33 -4 20z"/>
<path d="M4055 1201 c-3 -5 -1 -12 5 -16 5 -3 10 1 10 9 0 18 -6 21 -15 7z"/>
<path d="M670 1193 c5 -2 8 -9 4 -14 -3 -5 0 -9 6 -9 15 0 7 23 -8 26 -7 1 -8
0 -2 -3z"/>
<path d="M2565 1190 c-3 -5 -2 -10 4 -10 6 0 8 -8 5 -17 -5 -17 -5 -17 6 0 6
9 15 15 21 12 5 -4 9 -2 9 3 0 6 -7 13 -16 16 -21 8 -22 8 -29 -4z"/>
<path d="M4085 1191 c-6 -11 9 -23 19 -14 9 9 7 23 -3 23 -6 0 -12 -4 -16 -9z"/>
<path d="M2524 1175 c-4 -8 -10 -13 -14 -10 -5 3 -11 1 -14 -4 -4 -5 1 -8 10
-7 8 1 20 9 25 17 8 13 13 6 10 -14 -1 -5 3 -6 9 -2 8 5 7 11 -1 21 -15 18
-18 18 -25 -1z"/>
<path d="M2735 1170 c-4 -6 -16 -8 -28 -5 -20 6 -21 5 -5 -8 10 -8 17 -16 15
-18 -1 -2 4 2 11 10 11 14 17 8 13 -12 -1 -5 3 -6 8 -3 10 6 9 31 -1 41 -3 4
-9 1 -13 -5z"/>
<path d="M580 1166 c0 -2 8 -10 18 -17 15 -13 16 -12 3 4 -13 16 -21 21 -21
13z"/>
<path d="M615 1160 c3 -5 8 -10 11 -10 2 0 4 5 4 10 0 6 -5 10 -11 10 -5 0 -7
-4 -4 -10z"/>
<path d="M1762 1158 c-15 -15 -16 -28 -2 -28 6 0 9 3 9 8 -3 20 3 23 19 11 15
-13 16 -12 3 4 -16 20 -14 20 -29 5z"/>
<path d="M1955 1161 c-3 -5 -2 -12 3 -15 5 -3 9 1 9 9 0 17 -3 19 -12 6z"/>
<path d="M2436 1153 c-6 -14 -5 -15 5 -6 7 7 10 15 7 18 -3 3 -9 -2 -12 -12z"/>
<path d="M4200 1153 c13 -28 27 -37 27 -18 0 8 -3 13 -5 10 -3 -3 -11 3 -19
13 -13 15 -13 15 -3 -5z"/>
<path d="M4275 1149 c-4 -6 -14 -8 -24 -4 -13 5 -14 4 -3 -6 10 -11 15 -10 29
4 10 9 14 17 11 17 -4 0 -10 -5 -13 -11z"/>
<path d="M1916 1138 c3 -5 10 -6 15 -3 13 9 11 12 -6 12 -8 0 -12 -4 -9 -9z"/>
<path d="M2626 1138 c3 -5 10 -6 15 -3 13 9 11 12 -6 12 -8 0 -12 -4 -9 -9z"/>
<path d="M2905 1142 c3 -3 0 -11 -6 -19 -15 -18 -1 -17 17 1 18 18 18 23 -1
23 -8 0 -13 -3 -10 -5z"/>
<path d="M541 1133 c-1 -17 16 -25 25 -12 4 7 3 9 -4 5 -5 -3 -13 0 -15 6 -4
9 -6 10 -6 1z"/>
<path d="M4345 1120 c-3 -6 1 -7 9 -4 18 7 21 14 7 14 -6 0 -13 -4 -16 -10z"/>
<path d="M1521 1097 c-13 -21 -12 -21 5 -5 10 10 16 20 13 22 -3 3 -11 -5 -18
-17z"/>
<path d="M1333 1103 c4 -3 -3 -18 -15 -32 -20 -22 -20 -23 -2 -8 11 9 24 14
29 10 4 -5 5 -2 1 5 -4 6 -2 12 4 12 6 0 8 5 5 10 -3 6 -11 10 -17 10 -6 0 -8
-3 -5 -7z"/>
<path d="M3020 1106 c0 -2 7 -7 16 -10 8 -3 12 -2 9 4 -6 10 -25 14 -25 6z"/>
<path d="M3160 1098 c0 -4 4 -8 9 -8 6 0 12 4 15 8 3 5 -1 9 -9 9 -8 0 -15 -4
-15 -9z"/>
<path d="M3227 1081 c-11 -14 -10 -15 7 -1 23 18 19 18 39 1 10 -7 17 -10 17
-5 0 5 5 2 10 -6 6 -10 10 -11 10 -2 0 6 5 12 10 12 7 0 7 -7 0 -22 -10 -21
-10 -21 3 -5 8 9 21 15 30 11 8 -3 17 -2 20 3 3 5 -2 10 -11 11 -26 2 -67 10
-67 12 0 1 -12 3 -28 4 -15 2 -32 -4 -40 -13z"/>
<path d="M1196 1072 c-12 -11 -6 -21 9 -16 11 5 14 1 9 -12 -4 -15 -4 -16 4
-4 6 8 12 19 14 24 3 10 -27 17 -36 8z"/>
<path d="M3255 1060 c3 -5 8 -10 11 -10 2 0 4 5 4 10 0 6 -5 10 -11 10 -5 0
-7 -4 -4 -10z"/>
<path d="M1270 1049 c0 -5 5 -7 10 -4 6 3 10 8 10 11 0 2 -4 4 -10 4 -5 0 -10
-5 -10 -11z"/>
<path d="M359 1045 c-1 -3 -2 -8 -3 -12 -3 -17 -18 -33 -26 -28 -5 3 -11 1
-14 -4 -8 -13 22 -7 36 7 12 12 20 42 12 42 -2 0 -5 -2 -5 -5z"/>
<path d="M390 1039 c0 -5 5 -7 10 -4 6 3 10 8 10 11 0 2 -4 4 -10 4 -5 0 -10
-5 -10 -11z"/>
<path d="M4466 1035 c-9 -26 -7 -32 5 -12 6 10 9 21 6 23 -2 3 -7 -2 -11 -11z"/>
<path d="M3516 1022 c-3 -5 1 -9 9 -9 8 0 12 4 9 9 -3 4 -7 8 -9 8 -2 0 -6 -4
-9 -8z"/>
<path d="M4521 1017 c-1 -15 -5 -16 -21 -7 -28 15 -25 6 4 -13 22 -15 25 -15
38 0 7 10 8 14 1 10 -7 -4 -13 0 -16 10 -4 17 -5 17 -6 0z"/>
<path d="M4560 995 c-7 -9 -8 -15 -2 -15 5 0 12 7 16 15 3 8 4 15 2 15 -2 0
-9 -7 -16 -15z"/>
<path d="M899 984 c-1 -5 -1 -13 0 -18 1 -5 -5 -6 -13 -3 -9 4 -18 2 -21 -4
-4 -5 6 -8 23 -7 17 1 29 7 28 15 -3 16 -16 29 -17 17z"/>
<path d="M3840 980 c10 -6 11 -10 3 -10 -7 0 -13 -5 -13 -11 0 -8 5 -8 15 1
16 13 11 30 -8 30 -7 0 -6 -4 3 -10z"/>
<path d="M4580 981 c0 -5 5 -13 10 -16 6 -4 7 -12 4 -18 -5 -9 -4 -9 6 0 10 9
10 15 -4 28 -9 9 -16 12 -16 6z"/>
<path d="M4656 967 c3 -10 9 -15 12 -12 3 3 0 11 -7 18 -10 9 -11 8 -5 -6z"/>
<path d="M831 956 c-9 -10 -8 -16 4 -26 9 -7 18 -10 22 -6 3 3 1 6 -5 6 -6 0
-9 9 -7 20 5 24 2 25 -14 6z"/>
<path d="M3854 949 c-3 -6 -2 -15 3 -20 5 -5 9 -1 9 11 0 23 -2 24 -12 9z"/>
<path d="M3979 958 c-5 -19 -8 -50 -4 -46 7 7 15 48 9 48 -2 0 -4 -1 -5 -2z"/>
<path d="M230 939 c0 -6 -7 -8 -17 -5 -10 4 -14 4 -10 0 4 -4 -1 -13 -11 -21
-12 -10 -8 -9 16 2 27 13 44 35 27 35 -3 0 -5 -5 -5 -11z"/>
<path d="M3945 940 c-3 -5 -1 -10 4 -10 6 0 11 5 11 10 0 6 -2 10 -4 10 -3 0
-8 -4 -11 -10z"/>
<path d="M4687 939 c7 -7 15 -10 18 -7 3 3 -2 9 -12 12 -14 6 -15 5 -6 -5z"/>
<path d="M4062 910 c-8 -14 -9 -21 0 -26 6 -4 8 -3 4 4 -10 17 11 24 33 10 17
-10 23 -10 33 0 11 11 10 12 -5 6 -11 -4 -25 0 -35 9 -16 15 -19 15 -30 -3z"/>
<path d="M726 905 c4 -8 11 -15 16 -15 6 0 5 6 -2 15 -7 8 -14 15 -16 15 -2 0
-1 -7 2 -15z"/>
<path d="M4274 860 c0 -11 6 -22 12 -24 7 -3 10 3 7 15 -7 26 -19 32 -19 9z"/>
<path d="M56 862 c-3 -5 1 -9 9 -9 8 0 12 4 9 9 -3 4 -7 8 -9 8 -2 0 -6 -4 -9
-8z"/>
<path d="M94 844 c-18 -14 -18 -15 4 -4 12 6 22 13 22 15 0 8 -5 6 -26 -11z"/>
<path d="M4795 840 c3 -5 8 -10 11 -10 2 0 4 5 4 10 0 6 -5 10 -11 10 -5 0 -7
-4 -4 -10z"/>
<path d="M500 815 c-7 -8 -15 -13 -19 -11 -4 3 -13 0 -21 -5 -12 -7 -10 -8 7
-6 11 2 28 8 35 15 8 6 19 8 23 4 5 -4 5 -1 1 6 -9 15 -11 15 -26 -3z"/>
<path d="M4267 819 c7 -7 15 -10 18 -7 3 3 -2 9 -12 12 -14 6 -15 5 -6 -5z"/>
<path d="M412 798 c-7 -10 -8 -18 0 -28 8 -12 9 -12 4 3 -3 9 -1 17 4 17 6 0
10 -5 10 -12 0 -6 3 -9 6 -5 3 3 2 13 -3 22 -8 13 -11 14 -21 3z"/>
<path d="M380 781 c0 -6 4 -13 10 -16 6 -3 7 1 4 9 -7 18 -14 21 -14 7z"/>
<path d="M4640 738 c0 -3 10 -16 22 -29 16 -18 19 -19 15 -6 -5 13 -3 17 5 14
7 -2 12 -13 10 -23 -3 -18 -3 -18 13 1 13 16 16 16 11 3 -4 -12 -1 -15 11 -11
10 4 14 2 10 -4 -3 -5 1 -10 9 -10 11 0 9 6 -8 24 -12 12 -24 21 -26 18 -3 -3
-11 0 -19 7 -7 6 -16 8 -20 5 -3 -4 -12 -2 -20 4 -7 6 -13 9 -13 7z"/>
<path d="M121 671 c-11 -7 -11 -9 0 -14 10 -4 10 -6 2 -6 -7 -1 -13 -6 -13
-13 0 -6 7 -4 18 5 10 10 23 14 27 10 5 -5 3 0 -4 10 -7 9 -14 17 -15 17 0 0
-7 -4 -15 -9z"/>
<path d="M4830 652 c0 -14 11 -21 26 -15 8 3 11 9 8 14 -7 11 -34 12 -34 1z"/>
<path d="M3 625 c0 -8 4 -15 9 -15 4 0 8 4 8 9 0 6 -4 12 -8 15 -5 3 -9 -1 -9
-9z"/>
<path d="M4815 620 c3 -5 8 -10 11 -10 2 0 4 5 4 10 0 6 -5 10 -11 10 -5 0 -7
-4 -4 -10z"/>
<path d="M70 599 c0 -5 5 -7 10 -4 6 3 10 8 10 11 0 2 -4 4 -10 4 -5 0 -10 -5
-10 -11z"/>
</g>
</svg>
