<svg enable-background="new 0 0 248 214.5" version="1.1" viewBox="0 0 248 214.5" xml:space="preserve" xmlns="http://www.w3.org/2000/svg">
<g fill="#fff">
	<path d="m72.316 202.25h-7.405v-4.426c-1.229 1.721-2.681 3.003-4.355 3.844s-3.362 1.263-5.064 1.263c-3.461 0-6.426-1.395-8.895-4.185s-3.703-6.682-3.703-11.675c0-5.107 1.201-8.989 3.603-11.646s5.438-3.986 9.107-3.986c3.366 0 6.279 1.4 8.738 4.199v-14.98h7.973v41.592zm-21.278-15.718c0 3.216 0.444 5.542 1.333 6.979 1.286 2.081 3.083 3.121 5.391 3.121 1.834 0 3.395-0.78 4.681-2.34 1.286-1.561 1.929-3.892 1.929-6.994 0-3.461-0.624-5.954-1.873-7.476-1.248-1.522-2.847-2.284-4.794-2.284-1.892 0-3.476 0.752-4.752 2.256-1.277 1.503-1.915 3.75-1.915 6.738z"/>
	<path d="m80.175 168.04v-7.376h7.973v7.376h-7.973zm0 34.216v-30.131h7.973v30.131h-7.973z"/>
	<path d="m95.582 204.24l9.107 1.106c0.151 1.059 0.501 1.788 1.05 2.185 0.756 0.567 1.948 0.851 3.575 0.851 2.08 0 3.641-0.312 4.681-0.937 0.7-0.416 1.229-1.088 1.589-2.014 0.246-0.663 0.369-1.882 0.369-3.66v-4.397c-2.383 3.253-5.391 4.88-9.022 4.88-4.048 0-7.254-1.711-9.618-5.135-1.854-2.705-2.78-6.072-2.78-10.1 0-5.05 1.215-8.909 3.646-11.576 2.43-2.667 5.452-4 9.065-4 3.726 0 6.799 1.636 9.221 4.908v-4.228h7.462v27.039c0 3.556-0.293 6.213-0.879 7.972-0.587 1.759-1.41 3.14-2.469 4.142-1.06 1.002-2.473 1.788-4.241 2.355-1.769 0.567-4.005 0.851-6.71 0.851-5.107 0-8.729-0.875-10.867-2.624-2.137-1.75-3.206-3.968-3.206-6.653-2e-3 -0.265 8e-3 -0.587 0.027-0.965zm7.121-17.675c0 3.197 0.619 5.537 1.858 7.022s2.766 2.227 4.582 2.227c1.948 0 3.593-0.761 4.937-2.284 1.343-1.522 2.015-3.778 2.015-6.767 0-3.121-0.644-5.438-1.929-6.951-1.287-1.513-2.913-2.27-4.88-2.27-1.911 0-3.485 0.743-4.724 2.228-1.24 1.484-1.859 3.75-1.859 6.795z"/>
	<path d="m131.81 168.04v-7.376h7.973v7.376h-7.973zm0 34.216v-30.131h7.973v30.131h-7.973z"/>
	<path d="m161.77 172.12v6.355h-5.448v12.143c0 2.459 0.052 3.892 0.156 4.298 0.104 0.407 0.34 0.743 0.709 1.007 0.369 0.265 0.818 0.397 1.348 0.397 0.737 0 1.806-0.255 3.206-0.766l0.681 6.185c-1.854 0.794-3.954 1.192-6.298 1.192-1.438 0-2.733-0.241-3.887-0.724s-2-1.106-2.539-1.873-0.913-1.802-1.121-3.107c-0.17-0.926-0.255-2.799-0.255-5.617v-13.136h-3.66v-6.355h3.66v-5.986l8-4.653v10.639h5.448z"/>
	<path d="m173.26 181.31l-7.235-1.305c0.813-2.913 2.213-5.069 4.199-6.469s4.937-2.1 8.852-2.1c3.556 0 6.204 0.421 7.944 1.262 1.74 0.842 2.965 1.911 3.674 3.206 0.709 1.296 1.064 3.674 1.064 7.136l-0.085 9.306c0 2.648 0.127 4.601 0.383 5.859 0.255 1.258 0.733 2.606 1.433 4.043h-7.888c-0.208-0.529-0.463-1.314-0.766-2.355-0.132-0.473-0.227-0.785-0.284-0.936-1.362 1.324-2.818 2.317-4.369 2.979s-3.206 0.993-4.965 0.993c-3.103 0-5.547-0.842-7.334-2.525-1.788-1.683-2.681-3.811-2.681-6.383 0-1.703 0.406-3.22 1.22-4.554 0.813-1.333 1.953-2.355 3.419-3.064 1.465-0.709 3.579-1.329 6.341-1.858 3.726-0.699 6.308-1.352 7.746-1.958v-0.794c0-1.532-0.378-2.625-1.135-3.277s-2.185-0.979-4.284-0.979c-1.418 0-2.525 0.279-3.319 0.837s-1.439 1.536-1.93 2.936zm10.667 6.468c-1.021 0.341-2.639 0.748-4.852 1.22-2.213 0.473-3.66 0.936-4.341 1.39-1.041 0.738-1.561 1.674-1.561 2.809 0 1.117 0.416 2.081 1.249 2.894 0.832 0.813 1.891 1.22 3.178 1.22 1.437 0 2.809-0.473 4.114-1.419 0.964-0.718 1.598-1.598 1.901-2.638 0.208-0.681 0.312-1.977 0.312-3.887v-1.589z"/>
	<path d="m199.62 202.25v-41.593h7.973v41.593h-7.973z"/>
</g>
	<path d="m11.283 23.736l11.604-6.567v26.929l-11.604-6.785-11.385-6.57 11.385-7.007zm0 29.996l-11.385 6.789v-26.929l11.385 6.567 11.604 7.007-11.604 6.566zm0 2.848l11.604-6.57v26.933l-11.604-6.789-11.385-6.567 11.385-7.007zm0 29.996l-11.385 6.789v-26.933l11.385 6.57 11.604 7.007-11.604 6.567zm0 2.848l11.604-6.57v26.933l-11.604-6.789-11.385-6.57 11.385-7.004zm0 29.996l-11.385 6.785v-26.929l11.385 6.567 11.604 7.007-11.604 6.57zm0 2.845l11.604-6.567v26.929l-11.604-6.785-11.385-6.57 11.385-7.007zm26.274-114.95l11.603-6.566v26.928l-11.604-6.785-11.385-6.57 11.386-7.007zm0 29.999l-11.385 6.785v-26.929l11.385 6.567 11.604 7.007-11.604 6.57zm0 101.37l11.604-6.567v26.929l-11.604-6.789-11.385-6.567 11.385-7.006zm26.274-117.8l-11.385 6.785v-26.928l11.385 6.565 11.604 7.007-11.604 6.571zm0 2.844l11.604-6.567v26.929l-11.604-6.785-11.385-6.57 11.385-7.007zm0 98.529l11.604-6.567v26.929l-11.604-6.785-11.385-6.57 11.385-7.007zm0 29.996l-11.385 6.789v-26.93l11.385 6.567 11.604 7.007-11.604 6.567zm26.273-114.95l-11.385 6.785v-26.929l11.385 6.567 11.604 7.007-11.604 6.57zm0 68.529l11.604-6.567v26.929l-11.604-6.785-11.385-6.57 11.385-7.007zm0 29.999l-11.385 6.785v-26.929l11.385 6.567 11.604 7.007-11.604 6.57z" fill="#fff"/>
	<path d="m124.04 13.563l11.607-6.567v26.929l-11.607-6.785-11.385-6.57 11.385-7.007zm0 29.996l-11.385 6.789v-26.93l11.385 6.567 11.607 7.007-11.607 6.567zm0 2.848l11.607-6.57v26.933l-11.607-6.789-11.385-6.567 11.385-7.007zm0 29.996l-11.385 6.789v-26.934l11.385 6.57 11.607 7.007-11.607 6.568zm0 2.847l11.607-6.57v26.933l-11.607-6.789-11.385-6.57 11.385-7.004zm0 29.996l-11.385 6.785v-26.929l11.385 6.567 11.607 7.007-11.607 6.57zm0 2.845l11.607-6.567v26.929l-11.607-6.785-11.385-6.57 11.385-7.007zm0 29.996l-11.385 6.789v-26.929l11.385 6.567 11.607 7.007-11.607 6.566zm26.274-79.258l11.607-6.57v26.933l-11.607-6.789-11.385-6.567 11.385-7.007zm0 29.995l-11.385 6.789v-26.933l11.385 6.57 11.607 7.004-11.607 6.57zm26.277-46.417l11.604-6.57v26.933l-11.604-6.789-11.388-6.567 11.388-7.007zm0 29.996l-11.388 6.789v-26.934l11.388 6.57 11.604 7.007-11.604 6.568zm26.273 52.543l11.604-6.565v26.928l-11.604-6.785-11.385-6.57 11.385-7.008zm0-101.81l-11.385 6.785v-26.929l11.385 6.567 11.604 7.007-11.604 6.57zm0 2.845l11.604-6.567v26.929l-11.604-6.789-11.385-6.567 11.385-7.006zm0 29.996l-11.385 6.789v-26.933l11.385 6.57 11.604 7.007-11.604 6.567zm0 2.848l11.604-6.57v26.933l-11.604-6.789-11.385-6.567 11.385-7.007zm0 29.995l-11.385 6.789v-26.933l11.385 6.57 11.604 7.004-11.604 6.57zm0 2.845l11.604-6.567v26.929l-11.604-6.785-11.385-6.57 11.385-7.007zm0 29.999l-11.385 6.785v-26.929l11.385 6.567 11.604 7.007-11.604 6.57z" fill="#fff"/>
	<path d="m236.8 128.95l11.604-6.565v26.928l-11.604-6.785-11.385-6.57 11.385-7.008zm0-84.928l-11.385 6.785v-26.929l11.385 6.567 11.604 7.007-11.604 6.57zm0 18.811l11.604-6.57v26.933l-11.604-6.789-11.385-6.567 11.385-7.007zm0 29.995l-11.385 6.789v-26.933l11.385 6.57 11.604 7.004-11.604 6.57zm0 2.845l11.604-6.567v26.929l-11.604-6.785-11.385-6.57 11.385-7.007zm0 29.999l-11.385 6.785v-26.929l11.385 6.567 11.604 7.007-11.604 6.57z" fill="#fff"/>
	<rect x="214.16" y="183.39" width="34.241" height="8" fill="#fff"/>
	<rect x="-.102" y="183.39" width="34.241" height="8" fill="#fff"/>
</svg>
