<svg enable-background="new 0 0 512 512" version="1.1" viewBox="0 0 512 512" xml:space="preserve" xmlns="http://www.w3.org/2000/svg">
<g transform="translate(1 1)">
			<path d="m451.27 59.463v-34.863c0-14.507-11.093-25.6-25.6-25.6h-366.93c-14.507 0-25.6 11.093-25.6 25.6v34.133h-8.533c-5.12 0-8.533 3.413-8.533 8.533s3.413 8.534 8.533 8.534h8.533v34.133c0 11.491 6.963 20.833 17.067 24.224v52.576c0 18.773 15.36 34.133 34.133 34.133 5.973 0 11.947-1.707 17.067-4.267v38.401c0 18.773 15.36 34.133 34.133 34.133s34.133-15.36 34.133-34.133v-62.293c4.267 1.707 8.533 2.56 12.8 2.56 16.213 0 29.867-13.653 29.867-29.867v-29.867h213.33c14.507 0 25.6-11.093 25.6-25.6v-33.045c14.679 3.814 25.6 17.216 25.6 33.046v34.133c0 16.213-11.947 30.72-27.307 34.133-6.827 1.707-115.2 11.093-186.03 17.067-18.773 0-34.133 15.36-34.133 34.133v51.2h-51.2c-2.56 0-5.12 1.707-6.827 3.413s-2.56 4.267-1.707 6.827l8.533 42.667c0.853 4.267 4.267 6.827 8.533 6.827h8.533v128c0 23.893 18.773 42.667 42.667 42.667 23.893 0 42.667-18.773 42.667-42.667v-128h8.533c4.267 0 7.68-2.56 8.533-6.827l8.533-42.667c0.853-2.56 0-5.12-1.707-6.827-1.707-2.56-4.267-3.413-6.827-3.413h-51.2v-51.2c0-9.387 7.68-17.067 17.92-17.067 29.867-2.56 180.91-15.36 188.59-17.067 23.893-5.12 40.96-26.453 40.96-51.2v-34.133c3e-3 -25.253-18.53-46.375-42.663-50.47zm-256 105.94c0 6.827-5.973 12.8-12.8 12.8s-12.8-5.973-12.8-12.8v-12.8c0-5.12-3.413-8.533-8.533-8.533s-8.533 3.413-8.533 8.533v102.4c0 9.387-7.68 17.067-17.067 17.067s-17.067-7.68-17.067-17.067v-93.867c0-5.12-3.413-8.533-8.533-8.533s-8.533 3.413-8.533 8.533v25.6c0 9.387-7.68 17.067-17.067 17.067s-17.067-7.68-17.067-17.067v-51.2h128v29.867zm238.93-55.467c0 5.12-3.413 8.533-8.533 8.533h-366.93c-5.12 0-8.533-3.413-8.533-8.533v-85.333c0-4.267 4.267-8.533 8.533-8.533h366.93c5.12 0 8.533 3.413 8.533 8.533v85.333zm-151.89 213.33h-10.24c-5.12 0-8.533 3.413-8.533 8.533v136.53c0 14.507-11.093 25.6-25.6 25.6s-25.6-11.093-25.6-25.6h17.066c5.12 0 8.533-3.413 8.533-8.533s-3.413-8.533-8.533-8.533h-17.067v-17.067h17.067c5.12 0 8.533-3.413 8.533-8.533s-3.413-8.533-8.533-8.533h-17.067v-85.334c0-5.12-3.413-8.533-8.533-8.533h-10.24l-5.12-25.6h98.987l-5.12 25.6z"/>
			<path d="m124.44 35.693c-3.413-3.413-8.533-2.56-11.947 0.853l-42.667 51.2c-3.413 3.413-2.56 8.533 0.853 11.947 0.853 0.853 3.413 1.707 5.12 1.707 2.56 0 5.12-0.853 6.827-2.56l42.667-51.2c3.414-3.413 2.56-8.533-0.853-11.947z"/>
			<path d="m184.17 35.693c-3.413-3.413-8.533-2.56-11.947 0.853l-42.667 51.2c-3.413 3.413-2.56 8.533 0.853 11.947 0.853 0.853 3.413 1.707 5.12 1.707 2.56 0 5.12-0.853 6.827-2.56l42.667-51.2c3.414-3.413 2.561-8.533-0.853-11.947z"/>
			<path d="m243.91 35.693c-3.413-3.413-8.533-2.56-11.947 0.853l-42.667 51.2c-3.413 3.413-2.56 8.533 0.853 11.947 0.853 0.853 3.413 1.707 5.12 1.707 2.56 0 5.12-0.853 6.827-2.56l42.667-51.2c3.413-3.413 2.56-8.533-0.853-11.947z"/>
			<path d="m303.64 35.693c-3.413-3.413-8.533-2.56-11.947 0.853l-42.667 51.2c-3.413 3.413-2.56 8.533 0.853 11.947 0.853 0.853 3.413 1.707 5.12 1.707 2.56 0 5.12-0.853 6.827-2.56l42.667-51.2c3.414-3.413 2.56-8.533-0.853-11.947z"/>
			<path d="m363.37 35.693c-3.413-3.413-8.533-2.56-11.947 0.853l-42.667 51.2c-3.413 3.413-2.56 8.533 0.853 11.947 0.853 0.853 3.413 1.707 5.12 1.707 2.56 0 5.12-0.853 6.827-2.56l42.667-51.2c3.414-3.413 2.561-8.533-0.853-11.947z"/>
			<path d="m402.63 36.547l-42.667 51.2c-3.413 3.413-2.56 8.533 0.853 11.947 0.853 0.853 3.413 1.707 5.12 1.707 2.56 0 5.12-0.853 6.827-2.56l42.667-51.2c3.413-3.413 2.56-8.533-0.853-11.947s-8.534-2.561-11.947 0.853z"/>
</g>
</svg>
