<svg enable-background="new 0 0 503.607 503.607" version="1.1" viewBox="0 0 503.607 503.607" xml:space="preserve" xmlns="http://www.w3.org/2000/svg">
		<path d="m461.64 259.94c-4.196 0-8.393 4.197-8.393 8.393 0 5.036 3.357 8.393 8.393 8.393s8.393-3.357 8.393-8.393-3.357-8.393-8.393-8.393z"/>
		<path d="m486.82 234.76c-4.196 0-8.393 4.196-8.393 8.393 0 5.036 3.357 8.393 8.393 8.393s8.393-3.357 8.393-8.393-3.357-8.393-8.393-8.393z"/>
		<path d="m436.46 234.76c-4.197 0-8.393 4.196-8.393 8.393 0 5.036 3.357 8.393 8.393 8.393s8.393-3.357 8.393-8.393-3.357-8.393-8.393-8.393z"/>
		<path d="m411.28 259.94c-4.196 0-8.393 4.197-8.393 8.393 0 5.036 3.357 8.393 8.393 8.393s8.393-3.357 8.393-8.393-3.357-8.393-8.393-8.393z"/>
		<path d="m360.92 259.94c-4.197 0-8.393 4.197-8.393 8.393 0 5.036 3.357 8.393 8.393 8.393s8.393-3.357 8.393-8.393-3.357-8.393-8.393-8.393z"/>
		<path d="m386.1 234.76c-4.196 0-8.393 4.196-8.393 8.393 0 5.036 3.357 8.393 8.393 8.393s8.393-3.357 8.393-8.393-3.357-8.393-8.393-8.393z"/>
		<path d="m335.74 234.76c-4.196 0-8.393 4.196-8.393 8.393 0 5.036 3.357 8.393 8.393 8.393s8.393-3.357 8.393-8.393-3.357-8.393-8.393-8.393z"/>
		<path d="m310.56 259.94c-4.196 0-8.393 4.197-8.393 8.393 0 5.036 3.357 8.393 8.393 8.393s8.393-3.357 8.393-8.393-3.356-8.393-8.393-8.393z"/>
		<path d="m260.2 259.94c-4.196 0-8.393 4.197-8.393 8.393 0 5.036 3.357 8.393 8.393 8.393s8.393-3.357 8.393-8.393-3.357-8.393-8.393-8.393z"/>
		<path d="m285.38 234.76c-4.197 0-8.393 4.196-8.393 8.393 0 5.036 3.357 8.393 8.393 8.393s8.393-3.357 8.393-8.393-3.357-8.393-8.393-8.393z"/>
		<path d="m461.64 209.58c-4.196-1e-3 -8.393 4.196-8.393 8.393 0 5.036 3.357 8.393 8.393 8.393s8.393-3.357 8.393-8.393-3.357-8.393-8.393-8.393z"/>
		<path d="m461.64 159.22c-4.196 0-8.393 4.196-8.393 8.393 0 5.036 3.357 8.393 8.393 8.393s8.393-3.357 8.393-8.393-3.357-8.393-8.393-8.393z"/>
		<path d="m486.82 184.4c-4.196 0-8.393 4.197-8.393 8.393 0 5.036 3.357 8.393 8.393 8.393s8.393-3.357 8.393-8.393-3.357-8.393-8.393-8.393z"/>
		<path d="m436.46 184.4c-4.197 0-8.393 4.197-8.393 8.393 0 5.036 3.357 8.393 8.393 8.393s8.393-3.357 8.393-8.393-3.357-8.393-8.393-8.393z"/>
		<path d="m411.28 209.58c-4.196-1e-3 -8.393 4.196-8.393 8.393 0 5.036 3.357 8.393 8.393 8.393s8.393-3.357 8.393-8.393-3.357-8.393-8.393-8.393z"/>
		<path d="m360.92 209.58c-4.197-1e-3 -8.393 4.196-8.393 8.393 0 5.036 3.357 8.393 8.393 8.393s8.393-3.357 8.393-8.393-3.357-8.393-8.393-8.393z"/>
		<path d="m411.28 159.22c-4.196 0-8.393 4.196-8.393 8.393 0 5.036 3.357 8.393 8.393 8.393s8.393-3.357 8.393-8.393-3.357-8.393-8.393-8.393z"/>
		<path d="m360.92 159.22c-4.197 0-8.393 4.196-8.393 8.393 0 5.036 3.357 8.393 8.393 8.393s8.393-3.357 8.393-8.393-3.357-8.393-8.393-8.393z"/>
		<path d="m386.1 184.4c-4.196 0-8.393 4.197-8.393 8.393 0 5.036 3.357 8.393 8.393 8.393s8.393-3.357 8.393-8.393-3.357-8.393-8.393-8.393z"/>
		<path d="m335.74 184.4c-4.196 0-8.393 4.197-8.393 8.393 0 5.036 3.357 8.393 8.393 8.393s8.393-3.357 8.393-8.393-3.357-8.393-8.393-8.393z"/>
		<path d="m310.56 209.58c-4.196-1e-3 -8.393 4.196-8.393 8.393 0 5.036 3.357 8.393 8.393 8.393s8.393-3.357 8.393-8.393c1e-3 -5.036-3.356-8.393-8.393-8.393z"/>
		<path d="m260.2 209.58c-4.196-1e-3 -8.393 4.196-8.393 8.393 0 5.036 3.357 8.393 8.393 8.393s8.393-3.357 8.393-8.393-3.357-8.393-8.393-8.393z"/>
		<path d="m310.56 159.22c-4.196 0-8.393 4.196-8.393 8.393 0 5.036 3.357 8.393 8.393 8.393s8.393-3.357 8.393-8.393-3.356-8.393-8.393-8.393z"/>
		<path d="m260.2 159.22c-4.196 0-8.393 4.196-8.393 8.393 0 5.036 3.357 8.393 8.393 8.393s8.393-3.357 8.393-8.393-3.357-8.393-8.393-8.393z"/>
		<path d="m285.38 184.4c-4.197 0-8.393 4.197-8.393 8.393 0 5.036 3.357 8.393 8.393 8.393s8.393-3.357 8.393-8.393-3.357-8.393-8.393-8.393z"/>
		<path d="m461.64 108.86c-4.196 0-8.393 4.197-8.393 8.393 0 5.036 3.357 8.393 8.393 8.393s8.393-3.357 8.393-8.393-3.357-8.393-8.393-8.393z"/>
		<path d="m486.82 134.04c-4.196-1e-3 -8.393 4.196-8.393 8.393 0 5.036 3.357 8.393 8.393 8.393s8.393-3.357 8.393-8.393-3.357-8.393-8.393-8.393z"/>
		<path d="m436.46 134.04c-4.197-1e-3 -8.393 4.196-8.393 8.393 0 5.036 3.357 8.393 8.393 8.393s8.393-3.357 8.393-8.393-3.357-8.393-8.393-8.393z"/>
		<path d="m486.82 83.683c-4.196 0-8.393 4.196-8.393 8.393 0 5.036 3.357 8.393 8.393 8.393s8.393-3.357 8.393-8.393-3.357-8.393-8.393-8.393z"/>
		<path d="m436.46 83.683c-4.197 0-8.393 4.196-8.393 8.393 0 5.036 3.357 8.393 8.393 8.393s8.393-3.357 8.393-8.393-3.357-8.393-8.393-8.393z"/>
		<path d="m411.28 108.86c-4.196 0-8.393 4.197-8.393 8.393 0 5.036 3.357 8.393 8.393 8.393s8.393-3.357 8.393-8.393-3.357-8.393-8.393-8.393z"/>
		<path d="m360.92 108.86c-4.197 0-8.393 4.197-8.393 8.393 0 5.036 3.357 8.393 8.393 8.393s8.393-3.357 8.393-8.393-3.357-8.393-8.393-8.393z"/>
		<path d="m386.1 134.04c-4.196-1e-3 -8.393 4.196-8.393 8.393 0 5.036 3.357 8.393 8.393 8.393s8.393-3.357 8.393-8.393-3.357-8.393-8.393-8.393z"/>
		<path d="m335.74 134.04c-4.196-1e-3 -8.393 4.196-8.393 8.393 0 5.036 3.357 8.393 8.393 8.393s8.393-3.357 8.393-8.393-3.357-8.393-8.393-8.393z"/>
		<path d="m386.1 83.683c-4.196 0-8.393 4.196-8.393 8.393 0 5.036 3.357 8.393 8.393 8.393s8.393-3.357 8.393-8.393-3.357-8.393-8.393-8.393z"/>
		<path d="m335.74 83.683c-4.196 0-8.393 4.196-8.393 8.393 0 5.036 3.357 8.393 8.393 8.393s8.393-3.357 8.393-8.393-3.357-8.393-8.393-8.393z"/>
		<path d="m310.56 108.86c-4.196 0-8.393 4.197-8.393 8.393 0 5.036 3.357 8.393 8.393 8.393s8.393-3.357 8.393-8.393-3.356-8.393-8.393-8.393z"/>
		<path d="m260.2 108.86c-4.196 0-8.393 4.197-8.393 8.393 0 5.036 3.357 8.393 8.393 8.393s8.393-3.357 8.393-8.393-3.357-8.393-8.393-8.393z"/>
		<path d="m285.38 134.04c-4.197-1e-3 -8.393 4.196-8.393 8.393 0 5.036 3.357 8.393 8.393 8.393s8.393-3.357 8.393-8.393-3.357-8.393-8.393-8.393z"/>
		<path d="m285.38 83.683c-4.197 0-8.393 4.196-8.393 8.393 0 5.036 3.357 8.393 8.393 8.393s8.393-3.357 8.393-8.393-3.357-8.393-8.393-8.393z"/>
		<path d="m461.64 58.503c-4.196-1e-3 -8.393 4.196-8.393 8.393 0 5.036 3.357 8.393 8.393 8.393s8.393-3.357 8.393-8.393-3.357-8.393-8.393-8.393z"/>
		<path d="m461.64 8.142c-4.196 0-8.393 4.196-8.393 8.393 0 5.036 3.357 8.393 8.393 8.393s8.393-3.357 8.393-8.393-3.357-8.393-8.393-8.393z"/>
		<path d="m486.82 33.322c-4.196 0-8.393 4.197-8.393 8.393 0 5.036 3.357 8.393 8.393 8.393s8.393-3.357 8.393-8.393-3.357-8.393-8.393-8.393z"/>
		<path d="m436.46 33.322c-4.197 0-8.393 4.197-8.393 8.393 0 5.036 3.357 8.393 8.393 8.393s8.393-3.357 8.393-8.393-3.357-8.393-8.393-8.393z"/>
		<path d="m411.28 58.503c-4.196-1e-3 -8.393 4.196-8.393 8.393 0 5.036 3.357 8.393 8.393 8.393s8.393-3.357 8.393-8.393-3.357-8.393-8.393-8.393z"/>
		<path d="m360.92 58.503c-4.197-1e-3 -8.393 4.196-8.393 8.393 0 5.036 3.357 8.393 8.393 8.393s8.393-3.357 8.393-8.393-3.357-8.393-8.393-8.393z"/>
		<path d="m411.28 8.142c-4.196 0-8.393 4.196-8.393 8.393 0 5.036 3.357 8.393 8.393 8.393s8.393-3.357 8.393-8.393-3.357-8.393-8.393-8.393z"/>
		<path d="m360.92 8.142c-4.197 0-8.393 4.196-8.393 8.393 0 5.036 3.357 8.393 8.393 8.393s8.393-3.357 8.393-8.393-3.357-8.393-8.393-8.393z"/>
		<path d="m386.1 33.322c-4.196 0-8.393 4.197-8.393 8.393 0 5.036 3.357 8.393 8.393 8.393s8.393-3.357 8.393-8.393-3.357-8.393-8.393-8.393z"/>
		<path d="m335.74 33.322c-4.196 0-8.393 4.197-8.393 8.393 0 5.036 3.357 8.393 8.393 8.393s8.393-3.357 8.393-8.393-3.357-8.393-8.393-8.393z"/>
		<path d="m310.56 58.503c-4.196-1e-3 -8.393 4.196-8.393 8.393 0 5.036 3.357 8.393 8.393 8.393s8.393-3.357 8.393-8.393-3.356-8.393-8.393-8.393z"/>
		<path d="m260.2 58.503c-4.196-1e-3 -8.393 4.196-8.393 8.393 0 5.036 3.357 8.393 8.393 8.393s8.393-3.357 8.393-8.393-3.357-8.393-8.393-8.393z"/>
		<path d="m310.56 8.142c-4.196 0-8.393 4.196-8.393 8.393 0 5.036 3.357 8.393 8.393 8.393s8.393-3.357 8.393-8.393c1e-3 -5.036-3.356-8.393-8.393-8.393z"/>
		<path d="m260.2 8.142c-4.196 0-8.393 4.196-8.393 8.393 0 5.036 3.357 8.393 8.393 8.393s8.393-3.357 8.393-8.393-3.357-8.393-8.393-8.393z"/>
		<path d="m285.38 33.322c-4.197 0-8.393 4.197-8.393 8.393 0 5.036 3.357 8.393 8.393 8.393s8.393-3.357 8.393-8.393-3.357-8.393-8.393-8.393z"/>
<g transform="translate(1)">
		<path d="m502.61 8.393c0-5.036-3.357-8.393-8.393-8.393h-486.82c-5.036 0-8.393 3.357-8.393 8.393v486.82c0 5.036 3.357 8.393 8.393 8.393h243.41c5.036 0 8.394-3.358 8.393-8.395v-100.72h201.44c23.502 0 41.967-26.02 41.967-58.754v-1e-3 -327.34zm-243.41 8.394h226.62v271.72c-2.291-2.383-4.772-4.432-7.402-6.125-0.385-0.249-0.77-0.496-1.162-0.728-0.242-0.143-0.489-0.275-0.734-0.412-0.328-0.184-0.656-0.367-0.988-0.539-0.311-0.162-0.626-0.314-0.941-0.466-0.249-0.119-0.497-0.237-0.748-0.35-0.378-0.171-0.758-0.336-1.141-0.493-0.154-0.063-0.309-0.121-0.464-0.182-1.959-0.768-3.98-1.344-6.052-1.716-0.208-0.038-0.415-0.075-0.623-0.109-0.371-0.059-0.742-0.112-1.116-0.157-0.336-0.042-0.673-0.074-1.01-0.105-0.283-0.025-0.566-0.054-0.851-0.072-0.649-0.041-1.298-0.067-1.948-0.067h-201.44v-260.2zm-41.969 360.92c-7.973 0-15.355-6.806-20.037-17.079-3.203-7.029-5.143-15.682-5.143-24.888 0-4.957 0.562-9.754 1.581-14.223 3.64-15.961 13.106-27.744 23.599-27.744h33.551c8e-3 0 0.015 1e-3 0.023 1e-3h180.28c-7.691 10.62-12.406 25.434-12.406 41.967s4.715 31.346 12.405 41.966h-213.85zm25.182 109.12h-226.62v-470.03h226.62v260.2h-25.181c-23.501 0-41.967 26.02-41.967 58.754s18.465 58.754 41.967 58.754h25.181v92.328zm218.23-109.12c-7.973 0-15.355-6.806-20.037-17.079-3.203-7.029-5.143-15.682-5.143-24.888 0-4.957 0.562-9.754 1.581-14.223 3.637-15.95 13.094-27.727 23.577-27.743h0.023c9.088 0 17.403 8.848 21.832 21.589 2.115 6.085 3.348 13.053 3.347 20.377 0 22.662-11.75 41.967-25.18 41.967z"/>
</g>
</svg>
