<svg enable-background="new 0 0 503.607 503.607" version="1.1" viewBox="0 0 503.607 503.607" xml:space="preserve" xmlns="http://www.w3.org/2000/svg">
<g transform="translate(1 1)">
		<path d="m477.43 416.99c-50.095-26.565-88.52-41.461-122.73-47.172l3.54-4.867c1.679-1.679 2.518-4.197 1.679-6.715l-7.866-31.463c20.804-29.41 33.046-66.178 33.046-101.15v-33.574h25.18c5.036 0 8.393-3.357 8.393-8.393s-3.357-8.393-8.393-8.393h-8.393v-8.393c0-66.308-43.646-122.54-109.12-141.01v-1.68c0-13.43-10.911-25.18-25.18-25.18h-33.574c-13.43 0-25.18 10.911-25.18 25.18v1.679c-65.469 18.466-109.12 74.702-109.12 141.01v8.393h-8.393c-5.036 0-8.393 3.357-8.393 8.393s3.357 8.393 8.393 8.393h25.18v33.574c0 34.975 12.242 71.743 33.046 101.15l-7.866 31.463c0 1.679 0 5.036 1.679 6.715l3.54 4.867c-34.206 5.712-72.632 20.607-122.73 47.172-15.947 7.555-25.18 23.502-25.18 41.128v36.092c0 5.036 3.357 8.393 8.393 8.393h486.82c5.036 0 8.393-3.357 8.393-8.393v-36.092c1e-3 -16.787-10.072-32.734-25.18-41.128zm-231.66-7.769l5.081-11.432 12.545 27.6 8.205 18.46h-40.941l15.11-34.628zm-21.49 51.415h52.983l4.796 25.18h-62.815l5.036-25.18zm114.65-117.51l3.357 15.108-8.574 11.773c-0.547 0.447-1.053 0.989-1.498 1.656l-34.912 48.34-11.078 15.211-22.628-50.913c27.048-3.299 51.193-16.877 70.694-36.39 0.216-0.214 0.433-0.426 0.648-0.642 0.052-0.053 0.104-0.106 0.156-0.159 1.293-1.297 2.572-2.623 3.835-3.984zm-10.935-282.74c0.932 0.62 1.856 1.25 2.77 1.892 10.699 7.973 20.575 17.313 28.31 27.368l-38.61 7.554 7.53-36.814zm-146.86 36.814l-38.61-7.554c7.735-10.056 17.612-19.396 28.311-27.369 0.913-0.641 1.837-1.271 2.769-1.891l7.53 36.814zm-64.63 69.666c0-22.335 5.623-43.406 15.8-61.82l58.063 11.46h1.679c2.518 0 4.197-0.839 6.715-1.679 2.518-1.679 3.357-5.036 2.518-7.554l-11.523-56.08c6.069-2.92 12.438-5.428 19.077-7.49v22.442c0 5.036 3.357 8.393 8.393 8.393s8.393-3.357 8.393-8.393v-41.968c0-4.197 3.357-8.393 8.393-8.393h33.574c4.197 0 8.393 3.357 8.393 8.393v41.967c0 5.036 3.357 8.393 8.393 8.393s8.393-3.357 8.393-8.393v-22.441c6.86 2.13 13.435 4.734 19.685 7.779l-11.291 54.952c0 2.518 0.839 5.875 2.518 7.554s3.357 2.518 5.875 2.518h1.679l57.687-12.145c10.416 18.576 16.175 39.894 16.175 62.505v8.393h-268.59v-8.393zm16.787 25.18h235.02v33.574c0 36.599-12.555 69.122-31.405 93.843l-0.49 0.163-2.518 2.518c-4.223 5.631-8.68 10.765-13.337 15.394-19.763 18.412-43.336 29.564-66.05 30.669-1.143-0.491-2.425-0.738-3.708-0.738-1.29 0-2.453 0.253-3.496 0.749-13.904-0.638-28.134-5.045-41.623-12.584-13.665-7.851-26.52-19.169-37.977-33.49l-2.518-2.518-0.49-0.163c-18.85-24.722-31.405-57.245-31.405-93.843v-33.574zm104.71 192.26l-22.628 50.913-11.078-15.211-34.912-48.34c-0.267-0.267-0.563-0.532-0.869-0.793l-9.203-12.637 3.357-15.108c1.138 1.225 2.292 2.419 3.457 3.594 19.704 20.151 44.279 34.216 71.876 37.582zm-222.22 73.813c0-10.911 5.875-20.984 15.948-26.02 53.501-28.423 92.015-42.688 126.32-46.949l50.088 68.87-6.359 31.796h-186v-27.697zm470.03 27.699h-186l-6.359-31.796 50.63-69.616c34.188 5.159 73.391 19.413 125.78 46.855 10.072 5.875 15.948 15.948 15.948 26.859v27.698z" fill="#fff"/>
</g>
</svg>
