<svg enable-background="new 0 0 503.607 503.607" version="1.1" viewBox="0 0 503.607 503.607" xml:space="preserve" xmlns="http://www.w3.org/2000/svg">
<g transform="translate(1 1)">
		<g fill="#fff">
			<path d="m435.46 95.838h-50.361c-5.036 0-8.393 3.357-8.393 8.393s3.357 8.393 8.393 8.393h50.361c5.036 0 8.393-3.357 8.393-8.393s-3.357-8.393-8.393-8.393z"/>
			<path d="m435.46 129.41h-50.361c-5.036 0-8.393 3.357-8.393 8.393s3.357 8.393 8.393 8.393h50.361c5.036 0 8.393-3.357 8.393-8.393s-3.357-8.393-8.393-8.393z"/>
			<path d="m450.57 54.711c-47.003-10.911-114.99-13.43-161.99-4.197l-7.554 1.679c-10.911 1.679-21.823 4.197-32.734 5.875l-15.798 2.519c-0.05 0-0.099-1e-3 -0.149-1e-3l-41.967 6.715c-15.593 2.126-27.594 13.829-30.951 28.538h-34.518c-18.466 0-33.574 15.108-33.574 33.574h-83.936c-5.036 0-8.393 3.357-8.393 8.393s3.357 8.393 8.393 8.393h83.934c0 18.466 15.108 33.574 33.574 33.574h34.518c1.622 7.106 5.261 13.509 10.348 18.471 5.578 5.504 12.939 9.427 21.442 10.906l83.095 12.59c15.31 3.969 34.456 6.401 54.839 7.565l13.987 62.94c0.839 4.197 4.197 6.715 8.393 6.715h16.787v53.718l-46.406 46.406c-2.021 1.124-3.383 3.067-3.809 5.571-0.16 0.714-0.211 1.45-0.146 2.199v33.115c0 9.233 7.554 16.787 16.787 16.787h125.9c9.233 0 16.787-7.554 16.787-16.787v-33.574c0-2.249-0.673-4.16-1.863-5.59l-14.924-44.771v-67.148l-4.59-69.609c27.338-9.357 46.557-35.542 46.557-64.686v-33.574c2e-3 -31.054-20.982-57.913-52.038-66.306zm-256.84 29.377l31.895-5.085v118.27l-32.734-4.91c-10.072-1.679-17.626-10.911-17.626-20.984v-67.148c-1e-3 -10.071 7.553-19.304 18.465-20.143zm-85.613 62.111v-16.787c0-9.233 7.554-16.787 16.787-16.787h33.574v50.361h-33.574c-9.233 0-16.787-7.554-16.787-16.787zm335.74 142.69v58.754h-58.754v-57.074-1e-3 -61.131c19.431-1.027 38.278-3.172 54.595-6.257l4.159 65.709zm-85.613-6.715l-10.911-50.361h20.984v50.361h-10.073zm21.823 82.256h66.308l10.911 33.574h-110.79l33.573-33.574zm80.577 75.54h-125.9v-25.18h125.9v25.18zm24.341-285.38c0 23.502-15.948 43.646-39.449 49.521-47.003 11.751-122.54 12.59-168.71 0.839l-34.413-5.162v-123.46l9.233-1.472c10.911-1.679 22.662-3.357 33.574-5.875l7.554-1.679c18.466-3.357 40.289-5.036 63.79-5.036 31.895 0 65.469 2.518 89.81 9.233 22.662 5.875 38.61 26.02 38.61 49.521v33.573z"/>
		</g>
</g>
</svg>
